#N canvas 116 55 1512 844 12;
#X obj 54 1250 soundfiler;
#X obj 54 1164 loadbang;
#N canvas 0 22 450 278 (subpatch) 0;
#X array kick 42722 float 2;
#X coords 0 1 42722 -1 200 140 1 0 0;
#X restore 46 995 graph;
#X obj 332 1253 soundfiler;
#X obj 332 1167 loadbang;
#N canvas 0 22 450 278 (subpatch) 0;
#X array snare 60637 float 2;
#X coords 0 1 60637 -1 200 140 1 0 0;
#X restore 324 998 graph;
#X obj 608 1253 soundfiler;
#X obj 608 1167 loadbang;
#N canvas 0 22 450 278 (subpatch) 0;
#X array hihat 6546 float 2;
#X coords 0 1 6546 -1 200 140 1 0 0;
#X restore 599 998 graph;
#X obj 885 1253 soundfiler;
#X obj 885 1167 loadbang;
#N canvas 0 22 450 278 (subpatch) 0;
#X array tom 22050 float 2;
#X coords 0 1 22050 -1 200 140 1 0 0;
#X restore 877 998 graph;
#X obj 894 516 tabplay~ kick;
#X obj 1118 783 dac~, f 14;
#X obj 1023 515 tabplay~ snare;
#X obj 1164 515 tabplay~ hihat;
#X obj 1295 514 tabplay~ tom;
#X obj 1320 683 hsl 128 15 0 1 0 0 empty empty Output_Volume -2 -8
0 10 -262144 -1 -1 6350 1;
#X obj 1275 614 loadbang;
#X msg 1275 642 0.5;
#X obj 1212 732 *~ 0.5;
#X obj 1117 733 *~ 0.5;
#X obj 1310 830 vu 15 120 empty empty -1 -8 0 10 -66577 -1 1 0;
#X obj 1420 831 vu 15 120 empty empty -1 -8 0 10 -66577 -1 1 0;
#X obj 1309 777 vu_measure;
#X obj 1419 778 vu_measure;
#X obj 334 162 hradio 15 1 0 12 empty empty empty 0 -8 0 10 -262144
-1 -1 2;
#X text 334 139 C;
#X text 348 139 C#;
#X text 366 139 D;
#X text 378 139 D#;
#X text 396 139 E;
#X text 411 139 F;
#X text 423 139 F#;
#X text 441 139 G;
#X text 453 139 G#;
#X text 470 139 A;
#X text 483 139 A#;
#X text 502 139 B;
#X text 350 106 Key (major pentatonic);
#X floatatom 334 188 5 0 0 0 - - -;
#X msg 54 1202 read -resize kick.wav kick;
#X msg 332 1205 read -resize snare.wav snare;
#X msg 608 1205 read -resize hihat.wav hihat;
#X msg 885 1205 read -resize tom.wav tom;
#X obj 894 482 bng 15 250 50 0 empty empty empty 17 7 0 10 -262144
-1 -1;
#X obj 1023 481 bng 15 250 50 0 empty empty empty 17 7 0 10 -262144
-1 -1;
#X obj 1164 480 bng 15 250 50 0 empty empty empty 17 7 0 10 -262144
-1 -1;
#X obj 1295 480 bng 15 250 50 0 empty empty empty 17 7 0 10 -262144
-1 -1;
#X obj 387 240 + 2;
#X obj 439 240 + 4;
#X obj 490 240 + 7;
#X obj 541 240 + 9;
#X obj 146 117 metro 500;
#X obj 146 151 bng 15 250 50 0 empty empty empty 17 7 0 10 -262144
-1 -1;
#X obj 421 507 osc~;
#X obj 421 471 mtof;
#X text 576 232 build the scale by calculating the root \, 2nd \, 3rd
\, 5th \, and 6th, f 32;
#X obj 146 48 loadbang;
#X obj 146 85 bng 15 250 50 0 empty empty empty 17 7 0 10 -262144 -1
-1;
#X obj 316 291 f;
#X obj 369 291 f;
#X obj 421 291 f;
#X obj 472 291 f;
#X obj 523 291 f;
#X obj 144 231 sel 0 1 2 3 4;
#X msg 551 374 4;
#X obj 551 343 loadbang;
#X obj 421 432 expr 12 * $f2 + $f1;
#X floatatom 343 474 5 0 0 0 - - -;
#X floatatom 551 404 5 0 0 0 - - -;
#X obj 420 545 *~ 0.7;
#X text 598 400 <- octave selector (different from standard octave
# for the time being), f 38;
#X obj 144 192 melody_maker;
#X obj 56 151 bng 15 250 50 0 empty empty empty 17 7 0 10 -262144 -1
-1;
#X text 5 185 Get set of 8 notes;
#X obj 257 48 hsl 128 15 125 1250 0 0 empty empty empty -2 -8 0 10
-262144 -1 -1 0 1;
#X text 407 46 Tempo;
#X connect 1 0 41 0;
#X connect 4 0 42 0;
#X connect 7 0 43 0;
#X connect 10 0 44 0;
#X connect 12 0 21 0;
#X connect 12 0 20 0;
#X connect 14 0 21 0;
#X connect 14 0 20 0;
#X connect 15 0 20 0;
#X connect 15 0 21 0;
#X connect 16 0 20 0;
#X connect 16 0 21 0;
#X connect 17 0 20 1;
#X connect 17 0 21 1;
#X connect 18 0 19 0;
#X connect 19 0 17 0;
#X connect 20 0 13 1;
#X connect 20 0 25 0;
#X connect 21 0 13 0;
#X connect 21 0 24 0;
#X connect 24 0 22 0;
#X connect 25 0 23 0;
#X connect 26 0 40 0;
#X connect 40 0 49 0;
#X connect 40 0 50 0;
#X connect 40 0 51 0;
#X connect 40 0 52 0;
#X connect 40 0 60 1;
#X connect 41 0 0 0;
#X connect 42 0 3 0;
#X connect 43 0 6 0;
#X connect 44 0 9 0;
#X connect 45 0 12 0;
#X connect 46 0 14 0;
#X connect 47 0 15 0;
#X connect 48 0 16 0;
#X connect 49 0 61 1;
#X connect 50 0 62 1;
#X connect 51 0 63 1;
#X connect 52 0 64 1;
#X connect 53 0 54 0;
#X connect 54 0 73 0;
#X connect 55 0 71 0;
#X connect 56 0 55 0;
#X connect 58 0 59 0;
#X connect 59 0 53 0;
#X connect 60 0 68 0;
#X connect 61 0 68 0;
#X connect 62 0 68 0;
#X connect 63 0 68 0;
#X connect 64 0 68 0;
#X connect 65 0 60 0;
#X connect 65 1 61 0;
#X connect 65 2 62 0;
#X connect 65 3 63 0;
#X connect 65 4 64 0;
#X connect 66 0 70 0;
#X connect 67 0 66 0;
#X connect 68 0 56 0;
#X connect 68 0 69 0;
#X connect 70 0 68 1;
#X connect 71 0 21 0;
#X connect 71 0 20 0;
#X connect 73 0 65 0;
#X connect 74 0 73 0;
#X connect 76 0 53 1;
