#N canvas 390 146 587 498 12;
#X obj 237 274 hradio 15 1 0 16 empty empty empty 0 -8 0 10 -262144
-1 -1 3;
#X obj 237 146 +;
#X msg 237 72 1;
#X obj 237 10 bng 15 250 50 0 empty empty empty 17 7 0 10 -262144 -1
-1;
#X floatatom 237 207 5 0 0 0 - - -;
#X obj 237 175 % 16;
#X obj 237 38 metro 200;
#X obj 251 237 s step;
#X obj 255 117 r step;
#X connect 1 0 5 0;
#X connect 2 0 1 0;
#X connect 3 0 6 0;
#X connect 4 0 0 0;
#X connect 4 0 7 0;
#X connect 5 0 4 0;
#X connect 6 0 2 0;
#X connect 8 0 1 1;
