#N canvas -11 -11 2560 1316 12;
#X obj 258 349 hradio 15 1 0 16 empty empty empty 0 -8 0 10 -262144
-1 -1 12;
#X obj 258 226 +;
#X msg 258 152 1;
#X obj 258 94 bng 15 250 50 0 empty empty empty 17 7 0 10 -262144 -1
-1;
#X floatatom 258 287 5 0 0 0 - - -;
#X obj 258 255 % 16;
#X obj 258 118 metro 200;
#X obj 272 317 s step;
#X obj 276 197 r step;
#X obj 842 70 hradio 15 1 0 12 empty empty empty 0 -8 0 10 -262144
-1 -1 0;
#X text 842 51 C;
#X text 856 51 C#;
#X text 874 51 D;
#X text 886 51 D#;
#X text 904 51 E;
#X text 919 51 F;
#X text 931 51 F#;
#X text 949 51 G;
#X text 961 51 G#;
#X text 978 51 A;
#X text 991 51 A#;
#X text 1010 51 B;
#X floatatom 842 307 5 0 0 0 - - -;
#X obj 842 274 expr 12 * $f2 + $f1;
#X floatatom 972 172 5 0 0 0 - - -;
#X obj 972 110 loadbang;
#X obj 972 203 + 2;
#X text 909 17 KEY ROOT;
#X obj 334 861 f;
#X obj 387 861 f;
#X obj 439 861 f;
#X obj 490 861 f;
#X obj 541 861 f;
#X text 696 306 root MIDI number >;
#X obj 842 345 s root_midi_number;
#X obj 100 585 r step;
#X obj 945 245 bng 15 250 50 0 empty empty empty 17 7 0 10 -262144
-1 -1;
#X obj 405 790 + 3;
#X obj 457 790 + 5;
#X obj 508 790 + 6;
#X obj 559 790 + 7;
#X obj 590 861 f;
#X obj 642 861 f;
#X obj 608 790 + 10;
#X obj 660 790 + 12;
#X obj 199 787 sel 0 1 2 3 4 5 6;
#X obj 334 707 r root_midi_number;
#X obj 461 956 osc~;
#X obj 461 910 mtof;
#X obj 1011 1102 dac~, f 6;
#X obj 199 757 random 7;
#X obj 100 619 bng 15 250 50 0 empty empty empty 17 7 0 10 -262144
-1 -1;
#X obj 1074 1036 hsl 128 15 0 0.5 0 0 empty empty empty -2 -8 0 10
-262144 -1 -1 12700 1;
#X obj 1071 981 loadbang;
#X obj 912 856 f;
#X obj 954 856 f;
#X obj 1006 856 f;
#X obj 777 693 r step;
#X obj 912 702 r root_midi_number;
#X obj 973 946 osc~;
#X obj 973 910 mtof;
#X obj 777 727 bng 15 250 50 0 empty empty empty 17 7 0 10 -262144
-1 -1;
#X obj 777 752 random 3;
#X obj 777 782 sel 0 1 2;
#X floatatom 865 908 5 0 0 0 - - -;
#X msg 972 142 4;
#X obj 912 781 - 36;
#X obj 972 781 - 29;
#X obj 1024 781 - 24;
#X obj 461 992 *~ 0.7;
#X obj 100 646 f;
#X obj 100 711 + 1;
#X obj 115 846 > 1;
#X obj 100 677 t f f;
#X obj 132 711 sel 0;
#X msg 156 641 0;
#X obj 115 876 sel 1;
#X msg 115 906 0;
#X obj 115 936 s note_step;
#X obj 157 610 r note_step;
#X obj 19 847 s note_step;
#X obj 65 755 t f f;
#X obj 258 66 loadbang;
#X obj 132 757 random 2;
#X text 380 202 STEP SEQUENCE;
#X text 472 639 LEAD;
#X text 880 645 BASS;
#X text 1016 173 < OCTAVE;
#X text 51 525 this mechanism causes each lead note to randomly last
either 1 or 2 steps, f 27;
#X msg 1071 1009 0.5;
#X obj 1011 1064 *~ 0.5, f 9;
#X connect 1 0 5 0;
#X connect 2 0 1 0;
#X connect 3 0 6 0;
#X connect 4 0 0 0;
#X connect 4 0 7 0;
#X connect 5 0 4 0;
#X connect 6 0 2 0;
#X connect 8 0 1 1;
#X connect 9 0 23 0;
#X connect 22 0 34 0;
#X connect 23 0 22 0;
#X connect 24 0 26 0;
#X connect 25 0 65 0;
#X connect 26 0 23 1;
#X connect 26 0 36 0;
#X connect 28 0 48 0;
#X connect 29 0 48 0;
#X connect 30 0 48 0;
#X connect 31 0 48 0;
#X connect 32 0 48 0;
#X connect 35 0 51 0;
#X connect 36 0 23 0;
#X connect 37 0 29 1;
#X connect 38 0 30 1;
#X connect 39 0 31 1;
#X connect 40 0 32 1;
#X connect 41 0 48 0;
#X connect 42 0 48 0;
#X connect 43 0 41 1;
#X connect 44 0 42 1;
#X connect 45 0 28 0;
#X connect 45 1 29 0;
#X connect 45 2 30 0;
#X connect 45 3 31 0;
#X connect 45 4 32 0;
#X connect 45 5 41 0;
#X connect 45 6 42 0;
#X connect 46 0 28 0;
#X connect 46 0 37 0;
#X connect 46 0 38 0;
#X connect 46 0 39 0;
#X connect 46 0 40 0;
#X connect 46 0 43 0;
#X connect 46 0 44 0;
#X connect 47 0 69 0;
#X connect 48 0 47 0;
#X connect 50 0 45 0;
#X connect 51 0 70 0;
#X connect 52 0 90 1;
#X connect 53 0 89 0;
#X connect 54 0 60 0;
#X connect 54 0 64 0;
#X connect 55 0 60 0;
#X connect 55 0 64 0;
#X connect 56 0 60 0;
#X connect 56 0 64 0;
#X connect 57 0 61 0;
#X connect 58 0 66 0;
#X connect 58 0 67 0;
#X connect 58 0 68 0;
#X connect 59 0 90 0;
#X connect 60 0 59 0;
#X connect 61 0 62 0;
#X connect 62 0 63 0;
#X connect 63 0 54 0;
#X connect 63 1 55 0;
#X connect 63 2 56 0;
#X connect 65 0 24 0;
#X connect 66 0 54 0;
#X connect 67 0 55 1;
#X connect 68 0 56 1;
#X connect 69 0 90 0;
#X connect 70 0 73 0;
#X connect 71 0 81 0;
#X connect 72 0 76 0;
#X connect 73 0 71 0;
#X connect 73 1 74 0;
#X connect 74 0 50 0;
#X connect 74 0 83 0;
#X connect 75 0 70 1;
#X connect 76 0 77 0;
#X connect 77 0 78 0;
#X connect 79 0 70 1;
#X connect 81 0 72 0;
#X connect 81 1 80 0;
#X connect 82 0 3 0;
#X connect 83 0 72 1;
#X connect 89 0 52 0;
#X connect 90 0 49 0;
#X connect 90 0 49 1;
