#N canvas 1912 76 1920 997 12;
#X floatatom 803 393 5 0 0 0 - - -;
#X obj 811 340 float;
#X obj 867 340 +;
#X floatatom 865 271 5 0 0 0 - - -;
#X msg 906 199 set 1;
#X obj 787 261 bng 15 250 50 0 empty empty empty 17 7 0 10 -262144
-1 -1;
#X floatatom 643 305 5 0 0 0 - - -;
#X obj 634 276 bng 15 250 50 0 empty empty empty 17 7 0 10 -262144
-1 -1;
#X obj 721 422 sel 8;
#X msg 717 193 stop;
#X obj 763 62 loadbang;
#X obj 765 157 bng 15 250 50 0 empty empty empty 17 7 0 10 -262144
-1 -1;
#X text 932 364 Create 8 random numbers. Stop the metronome at 8;
#X msg 675 638 0 2 4 0 2 5 0 1 4 0 2 5 0 2 4 0 1 4 0 1 4 0 2 5;
#X msg 557 271 set;
#X obj 754 228 metro 5;
#X obj 525 554 delay 50 1 msec;
#X obj 508 601 bng 15 250 50 0 empty empty empty 17 7 0 10 -262144
-1 -1;
#X obj 709 113 bng 15 250 50 0 empty empty empty 17 7 0 10 -262144
-1 -1;
#X obj 802 126 t b b;
#X msg 648 452 set;
#X obj 701 148 t b b;
#X msg 675 562 add2 0 2 4;
#X msg 764 560 add2 0 1 4;
#X msg 859 562 add2 0 2 5;
#X msg 956 563 add2 0 3 5;
#X obj 774 520 sel 0 1 2 3;
#X obj 786 470 random 4;
#X obj 1089 532 sel 0 1 2 3;
#X msg 1074 564 add2 0;
#X msg 1163 562 add2 3;
#X msg 1258 564 add2 5;
#X msg 1355 565 add2 7;
#X connect 1 0 0 0;
#X connect 1 0 2 0;
#X connect 1 0 8 0;
#X connect 2 0 1 1;
#X connect 3 0 2 1;
#X connect 4 0 3 0;
#X connect 5 0 1 0;
#X connect 6 0 1 0;
#X connect 7 0 6 0;
#X connect 7 0 16 0;
#X connect 8 0 9 0;
#X connect 8 0 7 0;
#X connect 9 0 15 0;
#X connect 10 0 19 0;
#X connect 11 0 14 0;
#X connect 11 0 3 0;
#X connect 14 0 13 0;
#X connect 15 0 5 0;
#X connect 15 0 27 0;
#X connect 16 0 17 0;
#X connect 16 0 13 0;
#X connect 18 0 21 0;
#X connect 19 0 11 0;
#X connect 19 1 4 0;
#X connect 20 0 13 0;
#X connect 21 0 15 0;
#X connect 21 1 20 0;
#X connect 22 0 13 0;
#X connect 23 0 13 0;
#X connect 24 0 13 0;
#X connect 25 0 13 0;
#X connect 26 0 22 0;
#X connect 26 1 23 0;
#X connect 26 2 24 0;
#X connect 26 3 25 0;
#X connect 27 0 26 0;
#X connect 27 0 28 0;
#X connect 28 0 29 0;
#X connect 28 1 30 0;
#X connect 28 2 31 0;
#X connect 28 3 32 0;
