#N canvas 358 83 1398 826 12;
#X text 88 185 red: 1 0 0, f 5;
#X floatatom 562 219 5 0 0 0 - - -;
#X obj 495 175 f;
#X obj 501 145 +;
#X msg 517 116 1;
#X obj 561 -18 tgl 15 0 empty empty empty 17 7 0 10 -262144 -1 -1 0
1;
#X obj 566 265 / 100;
#X obj 645 297 sel 1;
#X obj 658 199 bng 15 250 50 0 empty empty empty 17 7 0 10 -262144
-1 -1;
#X obj 426 7 loadbang;
#X text 86 226 orange: 1 0.45 0, f 8;
#X obj 559 5 metro 50;
#X text 88 285 yellow: 1 0.5 0, f 8;
#X text 94 332 green: 0 0.8 0, f 6;
#X obj 1095 1259 bng 15 250 50 0 empty empty empty 17 7 0 10 -262144
-1 -1;
#X obj 568 343 moses 0.5;
#X obj 503 380 moses 0.25;
#X obj 615 382 moses 0.75;
#X floatatom 449 429 5 0 0 0 - - -;
#X floatatom 520 430 5 0 0 0 - - -;
#X floatatom 628 430 5 0 0 0 - - -;
#X floatatom 706 434 5 0 0 0 - - -;
#X obj 449 469 * 4;
#X obj 517 465 expr ($f1 - .25) * 4, f 11;
#X obj 620 466 expr ($f1 - .5) * 4, f 11;
#X obj 715 465 expr ($f1 - .75) * 4, f 11;
#X floatatom 447 517 5 0 0 0 - - -;
#X floatatom 518 518 5 0 0 0 - - -;
#X floatatom 626 518 5 0 0 0 - - -;
#X floatatom 704 522 5 0 0 0 - - -;
#X obj 447 558 * 0.45;
#X text 293 555 inc green for orange;
#X obj 518 557 * 0.05;
#X obj 518 595 + 0.45;
#X text 291 601 inc green for yellow;
#X text 294 637 inc green for green dec red;
#X obj 596 558 * 0.3;
#X obj 589 592 + 0.5;
#X obj 653 550 expr ($f1 - 1) * -1, f 5;
#X obj 522 770 dac~ 3 4 5;
#X msg 416 716 1;
#X obj 312 707 loadbang;
#X floatatom 504 711 5 0 0 0 - - -;
#X floatatom 551 705 5 0 0 0 - - -;
#X floatatom 591 708 5 0 0 0 - - -;
#X obj 443 298 sel 0;
#X obj 540 72 spigot;
#X obj 584 47 tgl 15 0 empty empty empty 17 7 0 10 -262144 -1 -1 0
1;
#X msg 571 116 -1;
#X obj 612 74 spigot;
#X obj 656 49 tgl 15 0 empty empty empty 17 7 0 10 -262144 -1 -1 1
1;
#X obj 650 25 expr ($f1 - 1) * -1;
#X text 110 42 the analog outputs may need to be adjusted below;
#X connect 1 0 6 0;
#X connect 2 0 3 1;
#X connect 2 0 1 0;
#X connect 3 0 2 0;
#X connect 4 0 3 0;
#X connect 5 0 11 0;
#X connect 6 0 7 0;
#X connect 6 0 15 0;
#X connect 6 0 45 0;
#X connect 7 0 8 0;
#X connect 8 0 47 0;
#X connect 9 0 5 0;
#X connect 9 0 47 0;
#X connect 11 0 46 0;
#X connect 11 0 49 0;
#X connect 15 0 16 0;
#X connect 15 1 17 0;
#X connect 16 0 18 0;
#X connect 16 1 19 0;
#X connect 17 0 20 0;
#X connect 17 1 21 0;
#X connect 18 0 22 0;
#X connect 19 0 23 0;
#X connect 20 0 24 0;
#X connect 21 0 25 0;
#X connect 22 0 26 0;
#X connect 23 0 27 0;
#X connect 24 0 28 0;
#X connect 25 0 29 0;
#X connect 26 0 30 0;
#X connect 27 0 32 0;
#X connect 28 0 36 0;
#X connect 28 0 38 0;
#X connect 30 0 43 0;
#X connect 32 0 33 0;
#X connect 33 0 43 0;
#X connect 36 0 37 0;
#X connect 37 0 43 0;
#X connect 38 0 42 0;
#X connect 40 0 42 0;
#X connect 41 0 40 0;
#X connect 42 0 39 0;
#X connect 43 0 39 1;
#X connect 44 0 39 2;
#X connect 45 0 40 0;
#X connect 45 0 47 0;
#X connect 46 0 4 0;
#X connect 47 0 46 1;
#X connect 47 0 51 0;
#X connect 48 0 3 0;
#X connect 49 0 48 0;
#X connect 50 0 49 1;
#X connect 51 0 50 0;
