#N canvas -2315 407 2304 1172 12;
#X obj 148 343 t f b;
#X obj 146 473 sel 1;
#X obj 148 96 inlet;
#X obj 191 237 / \$1;
#X msg 191 210 64;
#X obj 148 275 /;
#X obj 191 174 loadbang;
#X text 194 93 < incoming numbers are the index of the current 64th
note of the measure, f 38;
#X text 201 278 \$1 is this abstraction's argument \, which is the
number of desired notes per measure, f 46;
#X obj 148 308 % \$1;
#X obj 146 531 outlet;
#X text 207 530 < output a bang \$1 times per measure, f 46;
#X obj 146 439 !=;
#X obj 164 397 f -1;
#X connect 0 0 12 0;
#X connect 0 0 13 1;
#X connect 0 1 13 0;
#X connect 1 0 10 0;
#X connect 2 0 5 0;
#X connect 3 0 5 1;
#X connect 4 0 3 0;
#X connect 5 0 9 0;
#X connect 6 0 4 0;
#X connect 9 0 0 0;
#X connect 12 0 1 0;
#X connect 13 0 12 1;
