#N canvas -176 293 1920 997 12;
#X floatatom 803 393 5 0 0 0 - - -;
#X obj 811 340 float;
#X obj 867 340 +;
#X floatatom 865 271 5 0 0 0 - - -;
#X msg 906 199 set 1;
#X obj 787 261 bng 15 250 50 0 empty empty empty 17 7 0 10 -262144
-1 -1;
#X floatatom 643 305 5 0 0 0 - - -;
#X obj 634 276 bng 15 250 50 0 empty empty empty 17 7 0 10 -262144
-1 -1;
#X obj 721 422 sel 8;
#X msg 717 193 stop;
#X obj 763 62 loadbang;
#X obj 765 157 bng 15 250 50 0 empty empty empty 17 7 0 10 -262144
-1 -1;
#X obj 786 470 random 5;
#X obj 774 520 sel 0 1 2 3 4;
#X msg 710 614 2 0 1 1 3 4 0 0;
#X msg 557 271 set;
#X floatatom 797 754 5 0 0 0 - - -;
#X floatatom 603 754 5 0 0 0 - - -;
#X floatatom 662 755 5 0 0 0 - - -;
#X floatatom 732 757 5 0 0 0 - - -;
#X floatatom 858 755 5 0 0 0 - - -;
#X msg 708 560 add2 0;
#X msg 775 563 add2 1;
#X msg 839 560 add2 2;
#X msg 909 563 add2 3;
#X msg 980 565 add2 4;
#X floatatom 985 755 5 0 0 0 - - -;
#X floatatom 920 758 5 0 0 0 - - -;
#X floatatom 1046 756 5 0 0 0 - - -;
#X obj 754 228 metro 5;
#X obj 525 554 delay 50 1 msec;
#X obj 508 601 bng 15 250 50 0 empty empty empty 17 7 0 10 -262144
-1 -1;
#X obj 709 113 bng 15 250 50 0 empty empty empty 17 7 0 10 -262144
-1 -1;
#X obj 802 126 t b b;
#X msg 670 456 set;
#X obj 701 148 t b b;
#X obj 664 58 inlet;
#X obj 1276 458 inlet;
#X floatatom 1254 737 5 0 0 0 - - -;
#X obj 1262 684 float;
#X obj 1318 684 +;
#X floatatom 1316 615 5 0 0 0 - - -;
#X obj 1238 605 bng 15 250 50 0 empty empty empty 17 7 0 10 -262144
-1 -1;
#X msg 1350 579 set 1;
#X obj 1336 516 t b b;
#X obj 1333 461 loadbang;
#X obj 1426 465 bng 15 250 50 0 empty empty empty 17 7 0 10 -262144
-1 -1;
#X obj 1315 737 sel 8;
#X floatatom 1362 656 5 0 0 0 - - -;
#X obj 527 834 spigot;
#X obj 600 787 sel 0;
#X floatatom 757 896 5 0 0 0 - - -;
#X obj 609 838 spigot;
#X obj 667 788 sel 1;
#X obj 698 838 spigot;
#X obj 774 840 spigot;
#X obj 761 790 sel 2;
#X obj 837 784 sel 3;
#X obj 587 814 tgl 15 0 empty empty empty 17 7 0 10 -262144 -1 -1 1
1;
#X obj 665 813 tgl 15 0 empty empty empty 17 7 0 10 -262144 -1 -1 0
1;
#X obj 740 816 tgl 15 0 empty empty empty 17 7 0 10 -262144 -1 -1 0
1;
#X obj 824 819 tgl 15 0 empty empty empty 17 7 0 10 -262144 -1 -1 0
1;
#X obj 843 839 spigot;
#X obj 925 843 spigot;
#X obj 1014 843 spigot;
#X obj 1090 845 spigot;
#X obj 903 819 tgl 15 0 empty empty empty 17 7 0 10 -262144 -1 -1 0
1;
#X obj 981 818 tgl 15 0 empty empty empty 17 7 0 10 -262144 -1 -1 0
1;
#X obj 1056 821 tgl 15 0 empty empty empty 17 7 0 10 -262144 -1 -1
0 1;
#X obj 1140 824 tgl 15 0 empty empty empty 17 7 0 10 -262144 -1 -1
0 1;
#X obj 923 785 sel 4;
#X obj 1010 779 sel 5;
#X obj 1089 782 sel 6;
#X obj 1163 784 sel 7;
#X obj 1185 678 loadbang;
#X msg 1208 707 7;
#X obj 770 945 outlet;
#X obj 705 700 unpack f f f f f f f f;
#X text 938 359 create 8 random numbers from 0 to 4;
#X text 953 524 compound the numbers in a list;
#X text 544 703 unpack the list;
#X text 396 753 the melody is stored here;
#X text 110 842 with each bang \, the next note will be sent to the
outlet;
#X text 1432 611 this part counts from 0 to 7;
#X connect 1 0 0 0;
#X connect 1 0 2 0;
#X connect 1 0 8 0;
#X connect 2 0 1 1;
#X connect 3 0 2 1;
#X connect 4 0 3 0;
#X connect 5 0 1 0;
#X connect 6 0 1 0;
#X connect 7 0 6 0;
#X connect 7 0 30 0;
#X connect 8 0 9 0;
#X connect 8 0 7 0;
#X connect 9 0 29 0;
#X connect 10 0 33 0;
#X connect 11 0 15 0;
#X connect 11 0 3 0;
#X connect 12 0 13 0;
#X connect 13 0 21 0;
#X connect 13 1 22 0;
#X connect 13 2 23 0;
#X connect 13 3 24 0;
#X connect 13 4 25 0;
#X connect 14 0 77 0;
#X connect 15 0 14 0;
#X connect 16 0 55 0;
#X connect 17 0 49 0;
#X connect 18 0 52 0;
#X connect 19 0 54 0;
#X connect 20 0 62 0;
#X connect 21 0 14 0;
#X connect 22 0 14 0;
#X connect 23 0 14 0;
#X connect 24 0 14 0;
#X connect 25 0 14 0;
#X connect 26 0 64 0;
#X connect 27 0 63 0;
#X connect 28 0 65 0;
#X connect 29 0 5 0;
#X connect 29 0 12 0;
#X connect 30 0 31 0;
#X connect 30 0 14 0;
#X connect 32 0 35 0;
#X connect 33 0 11 0;
#X connect 33 1 4 0;
#X connect 34 0 14 0;
#X connect 35 0 29 0;
#X connect 35 1 34 0;
#X connect 36 0 32 0;
#X connect 37 0 42 0;
#X connect 38 0 50 0;
#X connect 38 0 53 0;
#X connect 38 0 56 0;
#X connect 38 0 57 0;
#X connect 38 0 73 0;
#X connect 38 0 72 0;
#X connect 38 0 71 0;
#X connect 38 0 70 0;
#X connect 39 0 38 0;
#X connect 39 0 40 0;
#X connect 39 0 47 0;
#X connect 40 0 39 1;
#X connect 41 0 40 1;
#X connect 42 0 39 0;
#X connect 42 0 28 0;
#X connect 42 0 26 0;
#X connect 42 0 27 0;
#X connect 42 0 20 0;
#X connect 42 0 16 0;
#X connect 42 0 19 0;
#X connect 42 0 18 0;
#X connect 42 0 17 0;
#X connect 43 0 41 0;
#X connect 44 0 41 0;
#X connect 44 1 43 0;
#X connect 45 0 44 0;
#X connect 46 0 44 0;
#X connect 47 0 48 0;
#X connect 48 0 39 0;
#X connect 49 0 51 0;
#X connect 50 0 58 0;
#X connect 50 0 69 0;
#X connect 51 0 76 0;
#X connect 52 0 51 0;
#X connect 53 0 59 0;
#X connect 53 0 58 0;
#X connect 54 0 51 0;
#X connect 55 0 51 0;
#X connect 56 0 60 0;
#X connect 56 0 59 0;
#X connect 57 0 61 0;
#X connect 57 0 60 0;
#X connect 58 0 49 1;
#X connect 59 0 52 1;
#X connect 60 0 54 1;
#X connect 61 0 55 1;
#X connect 62 0 51 0;
#X connect 63 0 51 0;
#X connect 64 0 51 0;
#X connect 65 0 51 0;
#X connect 66 0 62 1;
#X connect 67 0 63 1;
#X connect 68 0 64 1;
#X connect 69 0 65 1;
#X connect 70 0 66 0;
#X connect 70 0 61 0;
#X connect 71 0 67 0;
#X connect 71 0 66 0;
#X connect 72 0 68 0;
#X connect 72 0 67 0;
#X connect 73 0 69 0;
#X connect 73 0 68 0;
#X connect 74 0 75 0;
#X connect 74 0 68 0;
#X connect 75 0 38 0;
#X connect 77 0 17 0;
#X connect 77 1 18 0;
#X connect 77 2 19 0;
#X connect 77 3 16 0;
#X connect 77 4 20 0;
#X connect 77 5 27 0;
#X connect 77 6 26 0;
#X connect 77 7 28 0;
