#N canvas 413 213 1300 997 12;
#X obj 557 64 loadbang;
#X msg 310 126 out 15;
#X msg 368 126 out 16;
#X msg 431 125 out 17;
#X msg 488 125 out 18;
#X msg 552 125 out 19;
#X msg 612 126 out 20;
#X msg 674 125 out 21;
#X msg 732 126 out 22;
#X obj 547 229 s bela_setDigital;
#X obj 326 483 dac~ 3 4 5 6;
#X obj 662 387 bng 15 250 50 0 empty empty empty 17 7 0 10 -262144
-1 -1;
#X obj 662 358 sel 1;
#X obj 810 375 bng 15 250 50 0 empty empty empty 17 7 0 10 -262144
-1 -1;
#X obj 810 348 sel 1;
#X obj 956 386 bng 15 250 50 0 empty empty empty 17 7 0 10 -262144
-1 -1;
#X obj 956 359 sel 1;
#X obj 1104 374 bng 15 250 50 0 empty empty empty 17 7 0 10 -262144
-1 -1;
#X obj 1104 347 sel 1;
#X obj 259 774 r bela_digitalOut15;
#X floatatom 291 836 5 0 0 0 - - -;
#X floatatom 442 838 5 0 0 0 - - -;
#X floatatom 601 837 5 0 0 0 - - -;
#X floatatom 752 839 5 0 0 0 - - -;
#X obj 410 775 r bela_digitalOut16;
#X obj 569 775 r bela_digitalOut17;
#X obj 720 777 r bela_digitalOut18;
#X floatatom 662 426 5 0 0 0 - - -;
#X floatatom 810 423 5 0 0 0 - - -;
#X floatatom 956 423 5 0 0 0 - - -;
#X floatatom 1104 420 5 0 0 0 - - -;
#X msg 600 404 119;
#X obj 566 343 loadbang;
#X obj 579 382 bng 15 250 50 0 empty empty empty 17 7 0 10 -262144
-1 -1;
#X msg 758 398 101;
#X msg 903 402 115;
#X msg 1059 401 100;
#X obj 840 498 s key_press;
#X floatatom 302 937 5 0 0 0 - - -;
#X floatatom 453 939 5 0 0 0 - - -;
#X floatatom 612 938 5 0 0 0 - - -;
#X floatatom 763 940 5 0 0 0 - - -;
#X floatatom 901 839 5 0 0 0 - - -;
#X floatatom 1052 841 5 0 0 0 - - -;
#X floatatom 1211 840 5 0 0 0 - - -;
#X floatatom 1362 842 5 0 0 0 - - -;
#X obj 405 580 r led_list_dig;
#X obj 263 393 r led_list_ana;
#X floatatom 269 519 5 0 0 0 - - -;
#X floatatom 319 518 5 0 0 0 - - -;
#X floatatom 366 521 5 0 0 0 - - -;
#X floatatom 416 520 5 0 0 0 - - -;
#X obj 405 638 unpack float float float float float float float float
float float float float;
#X obj 265 440 unpack float float float float;
#X obj 270 875 r bela_digitalOut11;
#X obj 419 876 r bela_digitalOut12;
#X obj 580 879 r bela_digitalOut13;
#X obj 731 876 r bela_digitalOut14;
#X obj 661 571 s bela_digitalOut11;
#X obj 809 569 s bela_digitalOut12;
#X obj 951 569 s bela_digitalOut13;
#X obj 1101 568 s bela_digitalOut14;
#X obj 80 700 s bela_digitalOut15;
#X obj 228 699 s bela_digitalOut16;
#X obj 372 700 s bela_digitalOut17;
#X obj 519 701 s bela_digitalOut18;
#X obj 665 699 s bela_digitalOut19;
#X obj 813 700 s bela_digitalOut20;
#X obj 957 696 s bela_digitalOut21;
#X obj 1105 697 s bela_digitalOut22;
#X obj 1020 777 r bela_digitalOut20;
#X obj 1179 778 r bela_digitalOut21;
#X obj 1330 780 r bela_digitalOut22;
#X obj 1104 319 r bela_digitalIn26;
#X obj 956 319 r bela_digitalIn25;
#X obj 810 317 r bela_digitalIn24;
#X obj 662 320 r bela_digitalIn23;
#X msg 66 128 out 11;
#X msg 127 128 out 12;
#X msg 190 127 out 13;
#X msg 248 127 out 14;
#X msg 969 123 in 26;
#X msg 915 123 in 25;
#X msg 852 124 in 24;
#X msg 795 124 in 23;
#X obj 870 777 r bela_digitalOut19;
#X connect 0 0 77 0;
#X connect 0 0 78 0;
#X connect 0 0 79 0;
#X connect 0 0 80 0;
#X connect 0 0 1 0;
#X connect 0 0 2 0;
#X connect 0 0 3 0;
#X connect 0 0 4 0;
#X connect 0 0 5 0;
#X connect 0 0 6 0;
#X connect 0 0 7 0;
#X connect 0 0 8 0;
#X connect 0 0 84 0;
#X connect 0 0 83 0;
#X connect 0 0 82 0;
#X connect 0 0 81 0;
#X connect 1 0 9 0;
#X connect 2 0 9 0;
#X connect 3 0 9 0;
#X connect 4 0 9 0;
#X connect 5 0 9 0;
#X connect 6 0 9 0;
#X connect 7 0 9 0;
#X connect 8 0 9 0;
#X connect 11 0 27 0;
#X connect 12 0 11 0;
#X connect 13 0 28 0;
#X connect 14 0 13 0;
#X connect 15 0 29 0;
#X connect 16 0 15 0;
#X connect 17 0 30 0;
#X connect 18 0 17 0;
#X connect 19 0 20 0;
#X connect 24 0 21 0;
#X connect 25 0 22 0;
#X connect 26 0 23 0;
#X connect 27 0 37 0;
#X connect 28 0 37 0;
#X connect 29 0 37 0;
#X connect 30 0 37 0;
#X connect 31 0 27 0;
#X connect 32 0 33 0;
#X connect 33 0 31 0;
#X connect 33 0 34 0;
#X connect 33 0 35 0;
#X connect 33 0 36 0;
#X connect 34 0 28 0;
#X connect 35 0 29 0;
#X connect 36 0 30 0;
#X connect 46 0 52 0;
#X connect 47 0 53 0;
#X connect 52 0 58 0;
#X connect 52 1 59 0;
#X connect 52 2 60 0;
#X connect 52 3 61 0;
#X connect 52 4 62 0;
#X connect 52 5 63 0;
#X connect 52 6 64 0;
#X connect 52 7 65 0;
#X connect 52 8 66 0;
#X connect 52 9 67 0;
#X connect 52 10 68 0;
#X connect 52 11 69 0;
#X connect 53 0 10 0;
#X connect 53 0 48 0;
#X connect 53 1 10 1;
#X connect 53 1 49 0;
#X connect 53 2 10 2;
#X connect 53 2 50 0;
#X connect 53 3 10 3;
#X connect 53 3 51 0;
#X connect 54 0 38 0;
#X connect 55 0 39 0;
#X connect 56 0 40 0;
#X connect 57 0 41 0;
#X connect 70 0 43 0;
#X connect 71 0 44 0;
#X connect 72 0 45 0;
#X connect 73 0 18 0;
#X connect 74 0 16 0;
#X connect 75 0 14 0;
#X connect 76 0 12 0;
#X connect 77 0 9 0;
#X connect 78 0 9 0;
#X connect 79 0 9 0;
#X connect 80 0 9 0;
#X connect 81 0 9 0;
#X connect 82 0 9 0;
#X connect 83 0 9 0;
#X connect 84 0 9 0;
#X connect 85 0 42 0;
