#N canvas 339 282 1920 997 12;
#X obj 909 156 bng 15 250 50 0 empty empty empty 17 7 0 10 -262144
-1 -1;
#X obj 1285 183 bng 15 250 50 0 empty empty empty 17 7 0 10 -262144
-1 -1;
#X obj 967 156 tgl 15 0 empty empty empty 17 7 0 10 -262144 -1 -1 0
1;
#X msg 967 211 1;
#X obj 967 267 +;
#X obj 1022 267 % 16;
#X obj 967 293 sel 1;
#X floatatom 1022 294 5 0 0 0 - - -;
#X obj 460 103 key;
#X floatatom 909 350 5 0 0 0 - - -;
#X floatatom 1023 321 5 0 0 0 - - -;
#X obj 967 181 metro 50;
#X obj 967 350 spigot;
#X obj 909 297 tgl 15 0 empty empty empty 17 7 0 10 -262144 -1 -1 0
1;
#X obj 1025 237 hsl 64 15 4 16 0 0 empty empty empty -2 -8 0 10 -262144
-1 -1 4200 1;
#X floatatom 967 383 5 0 0 0 - - -;
#X obj 967 508 bng 15 250 50 0 empty empty empty 17 7 0 10 -262144
-1 -1;
#X obj 460 132 s key_press;
#X obj 967 534 s kick_play;
#X obj 1051 534 s score_incr;
#X obj 808 350 r key_press;
#X obj 592 208 metro 200;
#X obj 592 183 tgl 15 0 empty empty empty 17 7 0 10 -262144 -1 -1 0
1;
#X obj 627 184 bng 15 250 50 0 empty empty empty 17 7 0 10 -262144
-1 -1;
#X msg 592 236 1;
#X obj 592 263 +;
#X obj 500 323 sel 1;
#X floatatom 662 264 5 0 0 0 - - -;
#X obj 1022 211 r press_window;
#X obj 676 156 r led_window;
#X obj 679 184 hsl 64 15 100 600 0 0 empty empty empty -2 -8 0 10 -262144
-1 -1 1260 1;
#X obj 629 264 % 5;
#X obj 544 323 sel 2;
#X obj 544 354 bng 15 250 50 0 empty empty empty 17 7 0 10 -262144
-1 -1;
#X obj 587 323 sel 3;
#X obj 630 323 sel 4;
#X obj 673 323 sel 5;
#X obj 587 354 bng 15 250 50 0 empty empty empty 17 7 0 10 -262144
-1 -1;
#X obj 630 354 bng 15 250 50 0 empty empty empty 17 7 0 10 -262144
-1 -1;
#X obj 673 354 bng 15 250 50 0 empty empty empty 17 7 0 10 -262144
-1 -1;
#X obj 544 384 tgl 15 0 empty empty empty 17 7 0 10 -262144 -1 -1 0
1;
#X obj 587 384 tgl 15 0 empty empty empty 17 7 0 10 -262144 -1 -1 0
1;
#X obj 630 384 tgl 15 0 empty empty empty 17 7 0 10 -262144 -1 -1 0
1;
#X obj 673 384 tgl 15 0 empty empty empty 17 7 0 10 -262144 -1 -1 0
1;
#X obj 500 353 bng 15 250 50 0 empty empty empty 17 7 0 10 -262144
-1 -1;
#X obj 500 384 tgl 15 0 empty empty empty 17 7 0 10 -262144 -1 -1 0
1;
#X obj 693 385 delay 200;
#X obj 693 414 s check_kick;
#X obj 909 126 r check_kick;
#X obj 544 409 s k_led1;
#X obj 587 434 s k_led2;
#X obj 630 458 s k_led3;
#X obj 673 483 s k_led4;
#X obj 1250 208 metro 200;
#X obj 1250 183 tgl 15 0 empty empty empty 17 7 0 10 -262144 -1 -1
0 1;
#X msg 1250 236 1;
#X obj 1250 263 +;
#X obj 1158 323 sel 1;
#X floatatom 1320 264 5 0 0 0 - - -;
#X obj 1337 184 hsl 64 15 100 600 0 0 empty empty empty -2 -8 0 10
-262144 -1 -1 1260 1;
#X obj 1287 264 % 5;
#X obj 1202 323 sel 2;
#X obj 1202 354 bng 15 250 50 0 empty empty empty 17 7 0 10 -262144
-1 -1;
#X obj 1245 323 sel 3;
#X obj 1288 323 sel 4;
#X obj 1331 323 sel 5;
#X obj 1245 354 bng 15 250 50 0 empty empty empty 17 7 0 10 -262144
-1 -1;
#X obj 1288 354 bng 15 250 50 0 empty empty empty 17 7 0 10 -262144
-1 -1;
#X obj 1331 354 bng 15 250 50 0 empty empty empty 17 7 0 10 -262144
-1 -1;
#X obj 1202 384 tgl 15 0 empty empty empty 17 7 0 10 -262144 -1 -1
0 1;
#X obj 1245 384 tgl 15 0 empty empty empty 17 7 0 10 -262144 -1 -1
0 1;
#X obj 1288 384 tgl 15 0 empty empty empty 17 7 0 10 -262144 -1 -1
0 1;
#X obj 1331 384 tgl 15 0 empty empty empty 17 7 0 10 -262144 -1 -1
0 1;
#X obj 1158 353 bng 15 250 50 0 empty empty empty 17 7 0 10 -262144
-1 -1;
#X obj 1158 384 tgl 15 0 empty empty empty 17 7 0 10 -262144 -1 -1
0 1;
#X obj 1351 385 delay 200;
#X obj 1202 409 s s_led1;
#X obj 1245 434 s s_led2;
#X obj 1288 458 s s_led3;
#X obj 1331 483 s s_led4;
#X obj 1351 414 s check_snare;
#X obj 1386 135 r led_window;
#X floatatom 418 133 5 0 0 0 - - -;
#X obj 460 159 keyname;
#X symbolatom 460 190 10 0 0 0 - - -;
#X floatatom 418 190 5 0 0 0 - - -;
#X obj 967 410 sel 119;
#X text 1046 13 pressing the wrong key \, during a check or otherwise
\, decreases the score. missing a note decreases the score. correct
presses increase the score.;
#X obj 894 453 spigot;
#X obj 894 434 bng 15 250 50 0 empty empty empty 17 7 0 10 -262144
-1 -1;
#X obj 925 435 tgl 15 0 empty empty empty 17 7 0 10 -262144 -1 -1 0
1;
#X obj 894 481 bng 15 250 50 0 empty empty empty 17 7 0 10 -262144
-1 -1;
#X msg 893 410 1;
#X obj 876 534 s score_decr;
#X obj 1572 156 bng 15 250 50 0 empty empty empty 17 7 0 10 -262144
-1 -1;
#X obj 1630 156 tgl 15 0 empty empty empty 17 7 0 10 -262144 -1 -1
0 1;
#X msg 1630 211 1;
#X obj 1630 267 +;
#X obj 1685 267 % 16;
#X obj 1630 293 sel 1;
#X floatatom 1685 294 5 0 0 0 - - -;
#X floatatom 1572 350 5 0 0 0 - - -;
#X floatatom 1686 321 5 0 0 0 - - -;
#X obj 1630 181 metro 50;
#X obj 1630 350 spigot;
#X obj 1572 297 tgl 15 0 empty empty empty 17 7 0 10 -262144 -1 -1
0 1;
#X obj 1688 237 hsl 64 15 4 16 0 0 empty empty empty -2 -8 0 10 -262144
-1 -1 4200 1;
#X floatatom 1630 383 5 0 0 0 - - -;
#X obj 1630 508 bng 15 250 50 0 empty empty empty 17 7 0 10 -262144
-1 -1;
#X obj 1721 534 s score_incr;
#X obj 1471 350 r key_press;
#X obj 1685 211 r press_window;
#X obj 1557 453 spigot;
#X obj 1557 434 bng 15 250 50 0 empty empty empty 17 7 0 10 -262144
-1 -1;
#X obj 1588 435 tgl 15 0 empty empty empty 17 7 0 10 -262144 -1 -1
0 1;
#X obj 1557 481 bng 15 250 50 0 empty empty empty 17 7 0 10 -262144
-1 -1;
#X msg 1556 410 1;
#X obj 1539 534 s score_decr;
#X obj 1572 126 r check_snare;
#X obj 1630 534 s snare_play;
#X obj 1630 410 sel 101;
#X obj 2413 55 r key_press;
#X obj 1943 293 r check_kick;
#X obj 1943 456 spigot;
#X obj 1943 377 tgl 15 0 empty empty empty 17 7 0 10 -262144 -1 -1
1 1;
#X obj 1980 377 delay 800;
#X obj 2040 323 r press_window;
#X obj 2040 350 * 50;
#X obj 1943 486 bng 15 250 50 0 empty empty empty 17 7 0 10 -262144
-1 -1;
#X obj 1943 402 expr ($f1 - 1) * -1;
#X obj 1943 431 tgl 15 0 empty empty empty 17 7 0 10 -262144 -1 -1
-0 1;
#X obj 2020 431 loadbang;
#X obj 1943 509 s score_decr;
#X obj 2260 459 spigot;
#X obj 2260 380 tgl 15 0 empty empty empty 17 7 0 10 -262144 -1 -1
1 1;
#X obj 2297 380 delay 800;
#X obj 2357 326 r press_window;
#X obj 2357 353 * 50;
#X obj 2260 489 bng 15 250 50 0 empty empty empty 17 7 0 10 -262144
-1 -1;
#X obj 2260 405 expr ($f1 - 1) * -1;
#X obj 2260 434 tgl 15 0 empty empty empty 17 7 0 10 -262144 -1 -1
-0 1;
#X obj 2337 434 loadbang;
#X obj 2260 512 s score_decr;
#X obj 2285 283 r check_snare;
#X obj 2563 84 s score_decr;
#X obj 625 654 bng 15 250 50 0 empty empty empty 17 7 0 10 -262144
-1 -1;
#X obj 592 679 metro 200;
#X obj 592 654 tgl 15 0 empty empty empty 17 7 0 10 -262144 -1 -1 0
1;
#X msg 592 707 1;
#X obj 592 734 +;
#X obj 500 794 sel 1;
#X floatatom 662 735 5 0 0 0 - - -;
#X obj 679 655 hsl 64 15 100 600 0 0 empty empty empty -2 -8 0 10 -262144
-1 -1 1260 1;
#X obj 629 735 % 5;
#X obj 544 794 sel 2;
#X obj 544 825 bng 15 250 50 0 empty empty empty 17 7 0 10 -262144
-1 -1;
#X obj 587 794 sel 3;
#X obj 630 794 sel 4;
#X obj 673 794 sel 5;
#X obj 587 825 bng 15 250 50 0 empty empty empty 17 7 0 10 -262144
-1 -1;
#X obj 630 825 bng 15 250 50 0 empty empty empty 17 7 0 10 -262144
-1 -1;
#X obj 673 825 bng 15 250 50 0 empty empty empty 17 7 0 10 -262144
-1 -1;
#X obj 544 855 tgl 15 0 empty empty empty 17 7 0 10 -262144 -1 -1 0
1;
#X obj 587 855 tgl 15 0 empty empty empty 17 7 0 10 -262144 -1 -1 0
1;
#X obj 630 855 tgl 15 0 empty empty empty 17 7 0 10 -262144 -1 -1 0
1;
#X obj 673 855 tgl 15 0 empty empty empty 17 7 0 10 -262144 -1 -1 0
1;
#X obj 500 824 bng 15 250 50 0 empty empty empty 17 7 0 10 -262144
-1 -1;
#X obj 500 855 tgl 15 0 empty empty empty 17 7 0 10 -262144 -1 -1 0
1;
#X obj 693 856 delay 200;
#X obj 914 606 bng 15 250 50 0 empty empty empty 17 7 0 10 -262144
-1 -1;
#X obj 972 606 tgl 15 0 empty empty empty 17 7 0 10 -262144 -1 -1 0
1;
#X msg 972 661 1;
#X obj 972 717 +;
#X obj 1027 717 % 16;
#X obj 972 743 sel 1;
#X floatatom 1027 744 5 0 0 0 - - -;
#X floatatom 914 800 5 0 0 0 - - -;
#X floatatom 1028 771 5 0 0 0 - - -;
#X obj 972 631 metro 50;
#X obj 972 800 spigot;
#X obj 914 747 tgl 15 0 empty empty empty 17 7 0 10 -262144 -1 -1 0
1;
#X obj 1030 687 hsl 64 15 4 16 0 0 empty empty empty -2 -8 0 10 -262144
-1 -1 4200 1;
#X floatatom 972 833 5 0 0 0 - - -;
#X obj 972 958 bng 15 250 50 0 empty empty empty 17 7 0 10 -262144
-1 -1;
#X obj 1063 984 s score_incr;
#X obj 813 800 r key_press;
#X obj 1027 661 r press_window;
#X obj 899 903 spigot;
#X obj 899 884 bng 15 250 50 0 empty empty empty 17 7 0 10 -262144
-1 -1;
#X obj 930 885 tgl 15 0 empty empty empty 17 7 0 10 -262144 -1 -1 0
1;
#X obj 899 931 bng 15 250 50 0 empty empty empty 17 7 0 10 -262144
-1 -1;
#X msg 898 860 1;
#X obj 881 984 s score_decr;
#X obj 914 576 r check_tom;
#X obj 693 885 s check_tom;
#X obj 972 984 s tom_play;
#X obj 1284 640 bng 15 250 50 0 empty empty empty 17 7 0 10 -262144
-1 -1;
#X obj 1250 663 metro 200;
#X obj 1250 638 tgl 15 0 empty empty empty 17 7 0 10 -262144 -1 -1
0 1;
#X msg 1250 691 1;
#X obj 1250 718 +;
#X obj 1158 778 sel 1;
#X floatatom 1320 719 5 0 0 0 - - -;
#X obj 1337 639 hsl 64 15 100 600 0 0 empty empty empty -2 -8 0 10
-262144 -1 -1 1260 1;
#X obj 1287 719 % 5;
#X obj 1202 778 sel 2;
#X obj 1202 809 bng 15 250 50 0 empty empty empty 17 7 0 10 -262144
-1 -1;
#X obj 1245 778 sel 3;
#X obj 1288 778 sel 4;
#X obj 1331 778 sel 5;
#X obj 1245 809 bng 15 250 50 0 empty empty empty 17 7 0 10 -262144
-1 -1;
#X obj 1288 809 bng 15 250 50 0 empty empty empty 17 7 0 10 -262144
-1 -1;
#X obj 1331 809 bng 15 250 50 0 empty empty empty 17 7 0 10 -262144
-1 -1;
#X obj 1202 839 tgl 15 0 empty empty empty 17 7 0 10 -262144 -1 -1
0 1;
#X obj 1245 839 tgl 15 0 empty empty empty 17 7 0 10 -262144 -1 -1
0 1;
#X obj 1288 839 tgl 15 0 empty empty empty 17 7 0 10 -262144 -1 -1
0 1;
#X obj 1331 839 tgl 15 0 empty empty empty 17 7 0 10 -262144 -1 -1
0 1;
#X obj 1158 808 bng 15 250 50 0 empty empty empty 17 7 0 10 -262144
-1 -1;
#X obj 1158 839 tgl 15 0 empty empty empty 17 7 0 10 -262144 -1 -1
0 1;
#X obj 1351 840 delay 200;
#X obj 1386 578 r led_window;
#X obj 1572 611 bng 15 250 50 0 empty empty empty 17 7 0 10 -262144
-1 -1;
#X obj 1630 611 tgl 15 0 empty empty empty 17 7 0 10 -262144 -1 -1
0 1;
#X msg 1630 666 1;
#X obj 1630 722 +;
#X obj 1685 722 % 16;
#X obj 1630 748 sel 1;
#X floatatom 1685 749 5 0 0 0 - - -;
#X floatatom 1572 805 5 0 0 0 - - -;
#X floatatom 1686 782 5 0 0 0 - - -;
#X obj 1630 636 metro 50;
#X obj 1630 805 spigot;
#X obj 1572 752 tgl 15 0 empty empty empty 17 7 0 10 -262144 -1 -1
0 1;
#X obj 1688 692 hsl 64 15 4 16 0 0 empty empty empty -2 -8 0 10 -262144
-1 -1 4200 1;
#X floatatom 1630 838 5 0 0 0 - - -;
#X obj 1630 963 bng 15 250 50 0 empty empty empty 17 7 0 10 -262144
-1 -1;
#X obj 1721 989 s score_incr;
#X obj 1471 805 r key_press;
#X obj 1685 666 r press_window;
#X obj 1557 908 spigot;
#X obj 1557 889 bng 15 250 50 0 empty empty empty 17 7 0 10 -262144
-1 -1;
#X obj 1588 890 tgl 15 0 empty empty empty 17 7 0 10 -262144 -1 -1
0 1;
#X obj 1557 936 bng 15 250 50 0 empty empty empty 17 7 0 10 -262144
-1 -1;
#X msg 1556 865 1;
#X obj 1539 989 s score_decr;
#X obj 1351 869 s check_hat;
#X obj 1572 581 r check_hat;
#X obj 1630 989 s hat_play;
#X obj 972 860 sel 115;
#X obj 1630 865 sel 100;
#X obj 2411 86 sel 119 101 115 100;
#X obj 544 880 s t_led1;
#X obj 587 905 s t_led2;
#X obj 630 929 s t_led3;
#X obj 673 954 s t_led4;
#X obj 1202 864 s h_led1;
#X obj 1245 889 s h_led2;
#X obj 1288 913 s h_led3;
#X obj 1331 938 s h_led4;
#X obj 716 125 s led_window;
#X obj 1026 135 s press_window;
#X obj 1995 621 r k_led1;
#X obj 2026 647 r k_led2;
#X obj 2063 673 r k_led3;
#X obj 2085 701 r k_led4;
#X obj 1946 727 bng 15 250 50 0 empty empty empty 17 7 0 10 -262144
-1 -1;
#X obj 2219 619 r s_led1;
#X obj 2250 645 r s_led2;
#X obj 2287 671 r s_led3;
#X obj 2309 699 r s_led4;
#X obj 2171 738 bng 15 250 50 0 empty empty empty 17 7 0 10 -262144
-1 -1;
#X obj 2493 608 r t_led1;
#X obj 2526 634 r t_led2;
#X obj 2561 660 r t_led3;
#X obj 2585 688 r t_led4;
#X obj 2436 735 bng 15 250 50 0 empty empty empty 17 7 0 10 -262144
-1 -1;
#X obj 2780 630 r h_led1;
#X obj 2824 657 r h_led2;
#X obj 2862 681 r h_led3;
#X obj 2885 709 r h_led4;
#X obj 2752 766 bng 15 250 50 0 empty empty empty 17 7 0 10 -262144
-1 -1;
#X obj 798 92 hsl 64 15 100 600 0 0 empty empty empty -2 -8 0 10 -262144
-1 -1 1260 1;
#X obj 2000 913 s led_list_dig;
#X obj 2799 915 s led_list_ana;
#X obj 2000 839 pack float float float float float float float float
float float float float, f 103;
#X obj 2799 853 pack float float float float;
#X text 591 16 kick responds to key w \, snare responds to key e \,
tom responds to key s \, and hat responds to key d;
#X obj 1099 95 hsl 64 15 4 16 0 0 empty empty empty -2 -8 0 10 -262144
-1 -1 4200 1;
#X obj 1113 63 loadbang;
#X obj 806 55 loadbang;
#X msg 756 55 200;
#X obj 643 235 loadbang;
#X obj 1306 233 loadbang;
#X obj 646 704 loadbang;
#X obj 1315 692 loadbang;
#X obj 93 79 r sixty_fourth_note_duration;
#X floatatom 143 160 5 0 0 0 - - -;
#X obj 143 228 s led_window;
#X obj 196 161 hsl 64 15 4 16 0 0 empty empty empty -2 -8 0 10 -262144
-1 -1 6300 1;
#X obj 193 107 loadbang;
#X floatatom 211 197 5 0 0 0 - - -;
#X obj 42 176 bng 15 250 50 0 empty empty empty 17 7 0 10 -262144 -1
-1;
#X obj 42 206 tgl 15 0 empty empty empty 17 7 0 10 -262144 -1 -1 0
1;
#X obj 42 147 inlet;
#X obj 748 568 r led_window;
#X msg 193 131 16;
#N canvas 435 169 1920 996 beatmaker 0;
#X obj 47 165 f;
#X obj 81 165 + 1;
#X obj 47 189 mod 16;
#X obj 47 213 hradio 15 1 0 16 empty empty empty 0 -8 0 10 -262144
-1 -1 11;
#X floatatom 100 189 5 0 0 0 - - -;
#X obj 59 119 tgl 15 0 empty empty empty 17 7 0 10 -262144 -1 -1 0
1;
#X obj 132 428 sel 4 12;
#X obj 47 141 metro 200;
#X obj 318 428 sel 9;
#X obj 400 428 sel 0 6 10;
#X obj 489 428 sel 4 9 12;
#X obj 675 428 sel 14;
#X obj 593 427 sel 2 8;
#X obj 122 312 spigot;
#X obj 120 262 sel 0;
#X obj 125 285 tgl 15 0 empty empty empty 17 7 0 10 -262144 -1 -1 0
1;
#X obj 438 209 hradio 15 1 0 8 empty empty empty 0 -8 0 10 -262144
-1 -1 0;
#X msg 166 270 set 0;
#X obj 447 315 spigot;
#X obj 450 288 tgl 15 0 empty empty empty 17 7 0 10 -262144 -1 -1 0
1;
#X msg 491 273 set 0;
#X obj 445 267 sel 1;
#X obj 43 464 s k_trigger;
#X obj 132 464 s s_trigger;
#X obj 221 464 s h_trigger;
#X obj 318 464 s t_trigger;
#X obj 400 464 s k_trigger;
#X obj 489 464 s s_trigger;
#X obj 593 464 s h_trigger;
#X obj 675 464 s t_trigger;
#X obj 47 84 inlet;
#X obj 126 80 inlet;
#X floatatom 142 123 5 0 0 0 - - -;
#X obj 438 174 loadbang;
#X obj 43 428 sel 0 10;
#X obj 804 315 spigot;
#X obj 807 288 tgl 15 0 empty empty empty 17 7 0 10 -262144 -1 -1 0
1;
#X msg 848 273 set 0;
#X obj 757 464 s k_trigger;
#X obj 846 464 s s_trigger;
#X obj 937 464 s h_trigger;
#X obj 1032 464 s t_trigger;
#X obj 802 267 sel 2;
#X obj 221 427 sel 2 6 8 12;
#X obj 757 428 sel 0 7 10;
#X obj 846 428 sel 4 12;
#X obj 937 427 sel 2 12 14;
#X obj 1032 428 sel 8;
#X obj 1165 315 spigot;
#X obj 1168 288 tgl 15 0 empty empty empty 17 7 0 10 -262144 -1 -1
0 1;
#X msg 1209 273 set 0;
#X obj 1118 464 s k_trigger;
#X obj 1207 464 s s_trigger;
#X obj 1298 464 s h_trigger;
#X obj 1393 464 s t_trigger;
#X obj 1163 267 sel 3;
#X obj 1118 428 sel 0 6;
#X obj 1207 428 sel 4 12 15;
#X obj 1298 427 sel 2 8 10;
#X obj 1393 428 sel 14;
#X obj 653 718 sel 14;
#X obj 114 606 spigot;
#X obj 117 579 tgl 15 0 empty empty empty 17 7 0 10 -262144 -1 -1 0
1;
#X msg 158 564 set 0;
#X obj 439 609 spigot;
#X obj 442 582 tgl 15 0 empty empty empty 17 7 0 10 -262144 -1 -1 0
1;
#X msg 483 567 set 0;
#X obj 35 758 s k_trigger;
#X obj 124 758 s s_trigger;
#X obj 213 758 s h_trigger;
#X obj 310 758 s t_trigger;
#X obj 392 758 s k_trigger;
#X obj 481 758 s s_trigger;
#X obj 566 758 s h_trigger;
#X obj 653 754 s t_trigger;
#X obj 796 609 spigot;
#X obj 799 582 tgl 15 0 empty empty empty 17 7 0 10 -262144 -1 -1 0
1;
#X msg 840 567 set 0;
#X obj 749 758 s k_trigger;
#X obj 838 758 s s_trigger;
#X obj 921 758 s h_trigger;
#X obj 1033 758 s t_trigger;
#X obj 1176 607 spigot;
#X obj 1179 580 tgl 15 0 empty empty empty 17 7 0 10 -262144 -1 -1
0 1;
#X msg 1220 565 set 0;
#X obj 1129 756 s k_trigger;
#X obj 1218 756 s s_trigger;
#X obj 1309 756 s h_trigger;
#X obj 1410 756 s t_trigger;
#X obj 112 556 sel 4;
#X obj 437 561 sel 5;
#X obj 794 561 sel 6;
#X obj 1174 559 sel 7;
#X obj 35 722 sel 0 10 14;
#X obj 124 722 sel 6 12;
#X obj 213 721 sel 3 9 14;
#X obj 310 722 sel 9;
#X obj 392 722 sel 0 10;
#X obj 481 722 sel 6 14;
#X obj 566 721 sel 3 9 12;
#X obj 749 722 sel 0 14;
#X obj 838 722 sel 8;
#X obj 921 721 sel 2 5 8 11 14;
#X obj 1033 722 sel 14;
#X obj 1410 720 sel 8;
#X obj 1129 720 sel 0 12;
#X obj 1218 720 sel 8 14;
#X obj 1309 719 sel 2 6 10 14;
#X obj 1588 305 spigot;
#X obj 1586 255 sel 0;
#X obj 1591 278 tgl 15 0 empty empty empty 17 7 0 10 -262144 -1 -1
1 1;
#X msg 1632 263 set 0;
#X obj 1509 457 s k_trigger;
#X obj 1598 457 s s_trigger;
#X obj 1687 457 s h_trigger;
#X obj 1784 457 s t_trigger;
#X obj 1509 421 sel 0;
#X obj 1598 421 sel 4;
#X obj 1687 420 sel 8;
#X obj 1784 421 sel 12;
#X obj 16 248 s beat_time;
#X obj 20 290 r beat_time;
#X obj 348 287 r beat_time;
#X obj 699 294 r beat_time;
#X obj 1066 294 r beat_time;
#X obj 15 579 r beat_time;
#X obj 347 577 r beat_time;
#X obj 698 580 r beat_time;
#X obj 1079 580 r beat_time;
#X obj 391 179 bng 15 250 50 0 empty empty empty 17 7 0 10 -262144
-1 -1;
#X obj 1492 283 r beat_time;
#X text 1579 210 for testing;
#X connect 0 0 1 0;
#X connect 0 0 2 0;
#X connect 1 0 0 1;
#X connect 2 0 3 0;
#X connect 2 0 4 0;
#X connect 3 0 120 0;
#X connect 5 0 7 0;
#X connect 6 0 23 0;
#X connect 6 1 23 0;
#X connect 7 0 0 0;
#X connect 8 0 25 0;
#X connect 9 0 26 0;
#X connect 9 1 26 0;
#X connect 9 2 26 0;
#X connect 10 0 27 0;
#X connect 10 1 27 0;
#X connect 11 0 29 0;
#X connect 12 0 28 0;
#X connect 12 1 28 0;
#X connect 13 0 6 0;
#X connect 13 0 8 0;
#X connect 13 0 34 0;
#X connect 13 0 43 0;
#X connect 14 0 15 0;
#X connect 14 1 17 0;
#X connect 15 0 13 1;
#X connect 16 0 21 0;
#X connect 16 0 42 0;
#X connect 16 0 55 0;
#X connect 16 0 89 0;
#X connect 16 0 90 0;
#X connect 16 0 14 0;
#X connect 17 0 15 0;
#X connect 18 0 9 0;
#X connect 18 0 10 0;
#X connect 18 0 12 0;
#X connect 18 0 11 0;
#X connect 19 0 18 1;
#X connect 20 0 19 0;
#X connect 21 0 19 0;
#X connect 21 1 20 0;
#X connect 30 0 5 0;
#X connect 31 0 7 1;
#X connect 31 0 32 0;
#X connect 33 0 16 0;
#X connect 34 0 22 0;
#X connect 34 1 22 0;
#X connect 35 0 45 0;
#X connect 35 0 46 0;
#X connect 35 0 47 0;
#X connect 35 0 44 0;
#X connect 36 0 35 1;
#X connect 37 0 36 0;
#X connect 42 0 36 0;
#X connect 42 1 37 0;
#X connect 43 0 24 0;
#X connect 43 1 24 0;
#X connect 43 2 24 0;
#X connect 44 0 38 0;
#X connect 44 1 38 0;
#X connect 44 2 38 0;
#X connect 45 0 39 0;
#X connect 45 1 39 0;
#X connect 46 0 40 0;
#X connect 46 1 40 0;
#X connect 47 0 41 0;
#X connect 48 0 56 0;
#X connect 48 0 57 0;
#X connect 48 0 58 0;
#X connect 48 0 59 0;
#X connect 49 0 48 1;
#X connect 50 0 49 0;
#X connect 55 0 49 0;
#X connect 55 1 50 0;
#X connect 56 0 51 0;
#X connect 56 1 51 0;
#X connect 56 2 51 0;
#X connect 57 0 52 0;
#X connect 57 1 52 0;
#X connect 58 0 53 0;
#X connect 58 1 53 0;
#X connect 59 0 54 0;
#X connect 60 0 74 0;
#X connect 61 0 93 0;
#X connect 61 0 94 0;
#X connect 61 0 95 0;
#X connect 61 0 96 0;
#X connect 62 0 61 1;
#X connect 63 0 62 0;
#X connect 64 0 60 0;
#X connect 64 0 97 0;
#X connect 64 0 98 0;
#X connect 64 0 99 0;
#X connect 65 0 64 1;
#X connect 66 0 65 0;
#X connect 75 0 100 0;
#X connect 75 0 101 0;
#X connect 75 0 102 0;
#X connect 75 0 103 0;
#X connect 76 0 75 1;
#X connect 77 0 76 0;
#X connect 82 0 104 0;
#X connect 82 0 105 0;
#X connect 82 0 106 0;
#X connect 82 0 107 0;
#X connect 83 0 82 1;
#X connect 84 0 83 0;
#X connect 89 0 62 0;
#X connect 89 1 63 0;
#X connect 90 0 65 0;
#X connect 90 1 66 0;
#X connect 91 0 76 0;
#X connect 91 1 77 0;
#X connect 92 0 83 0;
#X connect 92 1 84 0;
#X connect 93 0 67 0;
#X connect 93 1 67 0;
#X connect 94 0 68 0;
#X connect 94 1 68 0;
#X connect 95 0 69 0;
#X connect 95 1 69 0;
#X connect 95 2 69 0;
#X connect 96 0 70 0;
#X connect 97 0 71 0;
#X connect 97 1 71 0;
#X connect 97 2 71 0;
#X connect 98 0 72 0;
#X connect 98 1 72 0;
#X connect 99 0 73 0;
#X connect 99 1 73 0;
#X connect 100 0 78 0;
#X connect 100 1 78 0;
#X connect 100 2 78 0;
#X connect 101 0 79 0;
#X connect 101 1 79 0;
#X connect 102 0 80 0;
#X connect 102 1 80 0;
#X connect 103 0 81 0;
#X connect 104 0 88 0;
#X connect 105 0 85 0;
#X connect 105 1 85 0;
#X connect 105 2 85 0;
#X connect 106 0 86 0;
#X connect 106 1 86 0;
#X connect 107 0 87 0;
#X connect 107 1 87 0;
#X connect 108 0 116 0;
#X connect 108 0 117 0;
#X connect 108 0 118 0;
#X connect 108 0 119 0;
#X connect 109 0 110 0;
#X connect 109 1 111 0;
#X connect 110 0 108 1;
#X connect 111 0 110 0;
#X connect 116 0 112 0;
#X connect 117 0 113 0;
#X connect 118 0 114 0;
#X connect 119 0 115 0;
#X connect 121 0 13 0;
#X connect 122 0 18 0;
#X connect 123 0 35 0;
#X connect 124 0 48 0;
#X connect 125 0 61 0;
#X connect 126 0 64 0;
#X connect 127 0 75 0;
#X connect 128 0 82 0;
#X connect 129 0 16 0;
#X connect 130 0 108 0;
#X restore 36 255 pd beatmaker;
#X obj 592 155 r k_trigger;
#X obj 592 594 r t_trigger;
#X obj 1250 129 r s_trigger;
#X obj 1250 580 r h_trigger;
#X floatatom 139 281 5 0 0 0 - - -;
#X msg 41 79 100;
#X obj 97 207 * 4;
#X obj 93 159 * 2;
#X msg 1076 63 12;
#X obj 1020 502 s k_hit;
#X obj 842 188 r k_hit;
#X floatatom 920 268 5 0 0 0 - - -;
#X obj 776 393 bng 15 250 50 0 empty empty empty 17 7 0 10 -262144
-1 -1;
#X obj 1882 293 r k_hit;
#X floatatom 1890 327 5 0 0 0 - - -;
#X floatatom 1851 371 5 0 0 0 - - -;
#X msg 1851 326 1;
#X floatatom 1898 369 5 0 0 0 - - -;
#X obj 2016 102 loadbang;
#X floatatom 1582 265 5 0 0 0 - - -;
#X obj 1509 207 r s_hit;
#X obj 1683 481 s s_hit;
#X obj 1435 387 bng 15 250 50 0 empty empty empty 17 7 0 10 -262144
-1 -1;
#X floatatom 2208 331 5 0 0 0 - - -;
#X floatatom 2169 375 5 0 0 0 - - -;
#X msg 2169 330 1;
#X floatatom 2216 373 5 0 0 0 - - -;
#X obj 2216 283 r s_hit;
#X obj 1014 940 s t_hit;
#X floatatom 921 717 5 0 0 0 - - -;
#X obj 846 688 r t_hit;
#X obj 2847 89 loadbang;
#X obj 1683 948 s h_hit;
#X obj 1486 663 r h_hit;
#X floatatom 1586 706 5 0 0 0 - - -;
#X obj 3044 767 s check_kick;
#X obj 3053 728 bng 15 250 50 0 empty empty empty 17 7 0 10 -262144
-1 -1;
#X obj 3152 733 bng 15 250 50 0 empty empty empty 17 7 0 10 -262144
-1 -1;
#X obj 3143 772 s check_snare;
#X obj 3255 726 bng 15 250 50 0 empty empty empty 17 7 0 10 -262144
-1 -1;
#X obj 3354 731 bng 15 250 50 0 empty empty empty 17 7 0 10 -262144
-1 -1;
#X obj 3246 765 s check_tom;
#X obj 3345 770 s check_hat;
#X obj 2650 438 spigot;
#X obj 2650 359 tgl 15 0 empty empty empty 17 7 0 10 -262144 -1 -1
1 1;
#X obj 2687 359 delay 800;
#X obj 2747 305 r press_window;
#X obj 2747 332 * 50;
#X obj 2650 468 bng 15 250 50 0 empty empty empty 17 7 0 10 -262144
-1 -1;
#X obj 2650 384 expr ($f1 - 1) * -1;
#X obj 2650 413 tgl 15 0 empty empty empty 17 7 0 10 -262144 -1 -1
1 1;
#X obj 2727 413 loadbang;
#X obj 2650 491 s score_decr;
#X obj 2967 441 spigot;
#X obj 2967 362 tgl 15 0 empty empty empty 17 7 0 10 -262144 -1 -1
1 1;
#X obj 3004 362 delay 800;
#X obj 3064 308 r press_window;
#X obj 3064 335 * 50;
#X obj 2967 471 bng 15 250 50 0 empty empty empty 17 7 0 10 -262144
-1 -1;
#X obj 2967 387 expr ($f1 - 1) * -1;
#X obj 2967 416 tgl 15 0 empty empty empty 17 7 0 10 -262144 -1 -1
1 1;
#X obj 3044 416 loadbang;
#X obj 2967 494 s score_decr;
#X floatatom 2581 309 5 0 0 0 - - -;
#X floatatom 2542 353 5 0 0 0 - - -;
#X msg 2542 308 1;
#X floatatom 2583 353 5 0 0 0 - - -;
#X floatatom 2915 313 5 0 0 0 - - -;
#X floatatom 2876 357 5 0 0 0 - - -;
#X msg 2876 312 1;
#X floatatom 2923 355 5 0 0 0 - - -;
#X obj 2587 205 r t_hit;
#X obj 2650 275 r check_tom;
#X obj 2925 193 r h_hit;
#X obj 2992 265 r check_hat;
#X obj 2507 314 bng 15 250 50 0 empty empty empty 17 7 0 10 -262144
-1 -1;
#X obj 2593 240 delay 50;
#X obj 2916 245 delay 50;
#X floatatom 2063 1027 5 0 0 0 - - -;
#X floatatom 2115 1030 5 0 0 0 - - -;
#X floatatom 2174 1024 5 0 0 0 - - -;
#X floatatom 2226 1027 5 0 0 0 - - -;
#X floatatom 2293 1029 5 0 0 0 - - -;
#X floatatom 2345 1032 5 0 0 0 - - -;
#X floatatom 2404 1026 5 0 0 0 - - -;
#X floatatom 2456 1029 5 0 0 0 - - -;
#X floatatom 2524 1026 5 0 0 0 - - -;
#X floatatom 2576 1029 5 0 0 0 - - -;
#X obj 2760 970 unpack float float float float;
#X floatatom 2740 1026 5 0 0 0 - - -;
#X floatatom 2802 1027 5 0 0 0 - - -;
#X floatatom 2868 1025 5 0 0 0 - - -;
#X floatatom 2930 1026 5 0 0 0 - - -;
#X msg 108 118 250;
#X floatatom 1904 641 5 0 0 0 - - -;
#X floatatom 2412 633 5 0 0 0 - - -;
#X obj 1947 686 t b f;
#X obj 1996 722 t b f;
#X obj 2039 758 t b f;
#X obj 2083 789 t b f;
#X obj 2183 667 t b f;
#X obj 2223 695 t b f;
#X obj 2261 727 t b f;
#X obj 2311 755 t b f;
#X obj 2463 668 t b f;
#X obj 2497 700 t b f;
#X obj 2533 725 t b f;
#X obj 2590 752 t b f;
#X obj 2749 698 t b f;
#X obj 2804 717 t b f;
#X obj 2848 755 t b f;
#X obj 2897 786 t b f;
#X obj 2086 972 unpack float float float float float float float float
float float float float, f 87;
#X floatatom 2627 1027 5 0 0 0 - - -;
#X floatatom 2679 1030 5 0 0 0 - - -;
#X connect 0 0 2 0;
#X connect 0 0 92 0;
#X connect 0 0 13 0;
#X connect 2 0 11 0;
#X connect 3 0 4 0;
#X connect 4 0 5 0;
#X connect 4 0 7 0;
#X connect 4 0 6 0;
#X connect 5 0 4 1;
#X connect 6 0 2 0;
#X connect 6 0 89 0;
#X connect 6 0 318 0;
#X connect 6 1 10 0;
#X connect 8 0 17 0;
#X connect 8 0 82 0;
#X connect 9 0 12 0;
#X connect 11 0 3 0;
#X connect 12 0 15 0;
#X connect 13 0 12 1;
#X connect 14 0 5 1;
#X connect 15 0 86 0;
#X connect 16 0 18 0;
#X connect 16 0 19 0;
#X connect 16 0 316 0;
#X connect 20 0 9 0;
#X connect 21 0 24 0;
#X connect 22 0 21 0;
#X connect 24 0 25 0;
#X connect 25 0 26 0;
#X connect 25 0 27 0;
#X connect 25 0 31 0;
#X connect 25 0 32 0;
#X connect 25 0 34 0;
#X connect 25 0 35 0;
#X connect 25 0 36 0;
#X connect 26 0 22 0;
#X connect 26 0 44 0;
#X connect 28 0 14 0;
#X connect 29 0 30 0;
#X connect 30 0 21 1;
#X connect 30 0 46 1;
#X connect 31 0 25 1;
#X connect 32 0 33 0;
#X connect 33 0 40 0;
#X connect 33 0 45 0;
#X connect 34 0 37 0;
#X connect 35 0 38 0;
#X connect 36 0 39 0;
#X connect 37 0 41 0;
#X connect 37 0 40 0;
#X connect 38 0 42 0;
#X connect 38 0 41 0;
#X connect 39 0 43 0;
#X connect 39 0 46 0;
#X connect 39 0 42 0;
#X connect 40 0 49 0;
#X connect 41 0 50 0;
#X connect 42 0 51 0;
#X connect 43 0 52 0;
#X connect 44 0 45 0;
#X connect 46 0 47 0;
#X connect 46 0 43 0;
#X connect 48 0 0 0;
#X connect 53 0 55 0;
#X connect 54 0 53 0;
#X connect 55 0 56 0;
#X connect 56 0 57 0;
#X connect 56 0 58 0;
#X connect 56 0 60 0;
#X connect 56 0 61 0;
#X connect 56 0 63 0;
#X connect 56 0 64 0;
#X connect 56 0 65 0;
#X connect 57 0 54 0;
#X connect 57 0 73 0;
#X connect 59 0 53 1;
#X connect 59 0 75 1;
#X connect 60 0 56 1;
#X connect 61 0 62 0;
#X connect 62 0 69 0;
#X connect 62 0 74 0;
#X connect 63 0 66 0;
#X connect 64 0 67 0;
#X connect 65 0 68 0;
#X connect 66 0 70 0;
#X connect 66 0 69 0;
#X connect 67 0 71 0;
#X connect 67 0 70 0;
#X connect 68 0 72 0;
#X connect 68 0 71 0;
#X connect 68 0 75 0;
#X connect 69 0 76 0;
#X connect 70 0 77 0;
#X connect 71 0 78 0;
#X connect 72 0 79 0;
#X connect 73 0 74 0;
#X connect 75 0 80 0;
#X connect 75 0 72 0;
#X connect 81 0 59 0;
#X connect 83 0 85 0;
#X connect 83 1 84 0;
#X connect 86 0 16 0;
#X connect 86 0 90 0;
#X connect 88 0 91 0;
#X connect 89 0 88 0;
#X connect 90 0 88 1;
#X connect 91 0 90 0;
#X connect 91 0 93 0;
#X connect 92 0 90 0;
#X connect 94 0 95 0;
#X connect 94 0 105 0;
#X connect 94 0 116 0;
#X connect 95 0 103 0;
#X connect 96 0 97 0;
#X connect 97 0 98 0;
#X connect 97 0 100 0;
#X connect 97 0 99 0;
#X connect 98 0 97 1;
#X connect 99 0 95 0;
#X connect 99 0 113 0;
#X connect 99 0 326 0;
#X connect 99 1 102 0;
#X connect 101 0 104 0;
#X connect 103 0 96 0;
#X connect 104 0 107 0;
#X connect 105 0 104 1;
#X connect 106 0 98 1;
#X connect 107 0 120 0;
#X connect 108 0 109 0;
#X connect 108 0 119 0;
#X connect 108 0 328 0;
#X connect 110 0 101 0;
#X connect 111 0 106 0;
#X connect 112 0 115 0;
#X connect 113 0 112 0;
#X connect 114 0 112 1;
#X connect 115 0 114 0;
#X connect 115 0 117 0;
#X connect 116 0 114 0;
#X connect 118 0 94 0;
#X connect 120 0 108 0;
#X connect 120 0 114 0;
#X connect 121 0 250 0;
#X connect 122 0 125 0;
#X connect 122 0 324 0;
#X connect 123 0 128 0;
#X connect 124 0 129 0;
#X connect 125 0 321 0;
#X connect 126 0 127 0;
#X connect 127 0 125 1;
#X connect 128 0 132 0;
#X connect 129 0 130 0;
#X connect 130 0 123 1;
#X connect 131 0 130 0;
#X connect 133 0 138 0;
#X connect 134 0 139 0;
#X connect 135 0 330 0;
#X connect 136 0 137 0;
#X connect 137 0 135 1;
#X connect 138 0 142 0;
#X connect 139 0 140 0;
#X connect 140 0 133 1;
#X connect 141 0 140 0;
#X connect 143 0 135 0;
#X connect 143 0 333 0;
#X connect 146 0 148 0;
#X connect 147 0 146 0;
#X connect 148 0 149 0;
#X connect 149 0 150 0;
#X connect 149 0 151 0;
#X connect 149 0 153 0;
#X connect 149 0 154 0;
#X connect 149 0 156 0;
#X connect 149 0 157 0;
#X connect 149 0 158 0;
#X connect 150 0 147 0;
#X connect 150 0 166 0;
#X connect 152 0 146 1;
#X connect 152 0 168 1;
#X connect 153 0 149 1;
#X connect 154 0 155 0;
#X connect 155 0 162 0;
#X connect 155 0 167 0;
#X connect 156 0 159 0;
#X connect 157 0 160 0;
#X connect 158 0 161 0;
#X connect 159 0 163 0;
#X connect 159 0 162 0;
#X connect 160 0 164 0;
#X connect 160 0 163 0;
#X connect 161 0 165 0;
#X connect 161 0 164 0;
#X connect 161 0 168 0;
#X connect 162 0 251 0;
#X connect 163 0 252 0;
#X connect 164 0 253 0;
#X connect 165 0 254 0;
#X connect 166 0 167 0;
#X connect 168 0 194 0;
#X connect 168 0 165 0;
#X connect 169 0 170 0;
#X connect 169 0 180 0;
#X connect 169 0 191 0;
#X connect 170 0 178 0;
#X connect 171 0 172 0;
#X connect 172 0 173 0;
#X connect 172 0 175 0;
#X connect 172 0 174 0;
#X connect 173 0 172 1;
#X connect 174 0 170 0;
#X connect 174 0 188 0;
#X connect 174 0 336 0;
#X connect 174 1 177 0;
#X connect 176 0 179 0;
#X connect 178 0 171 0;
#X connect 179 0 182 0;
#X connect 180 0 179 1;
#X connect 181 0 173 1;
#X connect 182 0 248 0;
#X connect 183 0 184 0;
#X connect 183 0 195 0;
#X connect 183 0 335 0;
#X connect 185 0 176 0;
#X connect 186 0 181 0;
#X connect 187 0 190 0;
#X connect 188 0 187 0;
#X connect 189 0 187 1;
#X connect 190 0 189 0;
#X connect 190 0 192 0;
#X connect 191 0 189 0;
#X connect 193 0 169 0;
#X connect 197 0 199 0;
#X connect 198 0 197 0;
#X connect 199 0 200 0;
#X connect 200 0 201 0;
#X connect 200 0 202 0;
#X connect 200 0 204 0;
#X connect 200 0 205 0;
#X connect 200 0 207 0;
#X connect 200 0 208 0;
#X connect 200 0 209 0;
#X connect 201 0 198 0;
#X connect 201 0 217 0;
#X connect 203 0 197 1;
#X connect 203 0 219 1;
#X connect 204 0 200 1;
#X connect 205 0 206 0;
#X connect 206 0 213 0;
#X connect 206 0 218 0;
#X connect 207 0 210 0;
#X connect 208 0 211 0;
#X connect 209 0 212 0;
#X connect 210 0 214 0;
#X connect 210 0 213 0;
#X connect 211 0 215 0;
#X connect 211 0 214 0;
#X connect 212 0 216 0;
#X connect 212 0 215 0;
#X connect 212 0 219 0;
#X connect 213 0 255 0;
#X connect 214 0 256 0;
#X connect 215 0 257 0;
#X connect 216 0 258 0;
#X connect 217 0 218 0;
#X connect 219 0 245 0;
#X connect 219 0 216 0;
#X connect 220 0 203 0;
#X connect 221 0 222 0;
#X connect 221 0 232 0;
#X connect 221 0 243 0;
#X connect 222 0 230 0;
#X connect 223 0 224 0;
#X connect 224 0 225 0;
#X connect 224 0 227 0;
#X connect 224 0 226 0;
#X connect 225 0 224 1;
#X connect 226 0 222 0;
#X connect 226 0 240 0;
#X connect 226 0 341 0;
#X connect 226 1 229 0;
#X connect 228 0 231 0;
#X connect 230 0 223 0;
#X connect 231 0 234 0;
#X connect 232 0 231 1;
#X connect 233 0 225 1;
#X connect 234 0 249 0;
#X connect 235 0 236 0;
#X connect 235 0 247 0;
#X connect 235 0 339 0;
#X connect 237 0 228 0;
#X connect 238 0 233 0;
#X connect 239 0 242 0;
#X connect 240 0 239 0;
#X connect 241 0 239 1;
#X connect 242 0 241 0;
#X connect 242 0 244 0;
#X connect 243 0 241 0;
#X connect 246 0 221 0;
#X connect 248 0 183 0;
#X connect 248 0 189 0;
#X connect 249 0 235 0;
#X connect 249 0 241 0;
#X connect 250 0 123 0;
#X connect 250 1 133 0;
#X connect 250 2 350 0;
#X connect 250 3 360 0;
#X connect 250 4 144 0;
#X connect 261 0 401 0;
#X connect 261 0 403 0;
#X connect 262 0 404 0;
#X connect 263 0 405 0;
#X connect 264 0 406 0;
#X connect 265 0 284 0;
#X connect 266 0 407 0;
#X connect 267 0 408 0;
#X connect 268 0 409 0;
#X connect 269 0 410 0;
#X connect 270 0 284 0;
#X connect 271 0 402 0;
#X connect 271 0 411 0;
#X connect 272 0 412 0;
#X connect 273 0 413 0;
#X connect 274 0 414 0;
#X connect 275 0 284 0;
#X connect 276 0 415 0;
#X connect 277 0 416 0;
#X connect 278 0 417 0;
#X connect 279 0 418 0;
#X connect 280 0 285 0;
#X connect 281 0 259 0;
#X connect 284 0 282 0;
#X connect 284 0 419 0;
#X connect 285 0 283 0;
#X connect 285 0 395 0;
#X connect 287 0 260 0;
#X connect 288 0 315 0;
#X connect 289 0 290 0;
#X connect 290 0 281 0;
#X connect 291 0 24 0;
#X connect 292 0 55 0;
#X connect 293 0 148 0;
#X connect 294 0 199 0;
#X connect 295 0 314 0;
#X connect 299 0 305 0;
#X connect 300 0 297 0;
#X connect 301 0 302 0;
#X connect 302 0 306 0;
#X connect 303 0 301 0;
#X connect 304 0 152 0;
#X connect 305 0 298 0;
#X connect 307 0 22 0;
#X connect 307 0 23 0;
#X connect 308 0 147 0;
#X connect 308 0 145 0;
#X connect 309 0 54 0;
#X connect 309 0 1 0;
#X connect 310 0 198 0;
#X connect 310 0 196 0;
#X connect 312 0 314 0;
#X connect 313 0 306 1;
#X connect 313 0 311 0;
#X connect 314 0 296 0;
#X connect 314 0 297 0;
#X connect 314 0 313 0;
#X connect 315 0 287 0;
#X connect 317 0 318 0;
#X connect 318 0 13 0;
#X connect 319 0 47 0;
#X connect 320 0 321 0;
#X connect 320 0 322 0;
#X connect 321 0 124 0;
#X connect 322 0 130 0;
#X connect 323 0 322 0;
#X connect 323 0 324 0;
#X connect 324 0 124 0;
#X connect 325 0 323 0;
#X connect 325 0 332 0;
#X connect 326 0 105 0;
#X connect 327 0 326 0;
#X connect 329 0 80 0;
#X connect 330 0 134 0;
#X connect 331 0 140 0;
#X connect 332 0 331 0;
#X connect 332 0 333 0;
#X connect 333 0 134 0;
#X connect 334 0 330 0;
#X connect 334 0 331 0;
#X connect 336 0 180 0;
#X connect 337 0 336 0;
#X connect 338 0 376 0;
#X connect 338 0 372 0;
#X connect 340 0 341 0;
#X connect 341 0 232 0;
#X connect 343 0 342 0;
#X connect 344 0 345 0;
#X connect 346 0 348 0;
#X connect 347 0 349 0;
#X connect 350 0 355 0;
#X connect 351 0 356 0;
#X connect 352 0 370 0;
#X connect 353 0 354 0;
#X connect 354 0 352 1;
#X connect 355 0 359 0;
#X connect 356 0 357 0;
#X connect 357 0 350 1;
#X connect 358 0 357 0;
#X connect 360 0 365 0;
#X connect 361 0 366 0;
#X connect 362 0 374 0;
#X connect 363 0 364 0;
#X connect 364 0 362 1;
#X connect 365 0 369 0;
#X connect 366 0 367 0;
#X connect 367 0 360 1;
#X connect 368 0 367 0;
#X connect 370 0 351 0;
#X connect 371 0 357 0;
#X connect 372 0 371 0;
#X connect 372 0 373 0;
#X connect 373 0 351 0;
#X connect 374 0 361 0;
#X connect 375 0 367 0;
#X connect 376 0 375 0;
#X connect 376 0 377 0;
#X connect 377 0 361 0;
#X connect 378 0 382 0;
#X connect 378 0 383 0;
#X connect 379 0 352 0;
#X connect 379 0 373 0;
#X connect 380 0 384 0;
#X connect 381 0 362 0;
#X connect 381 0 377 0;
#X connect 383 0 370 0;
#X connect 383 0 371 0;
#X connect 384 0 374 0;
#X connect 384 0 375 0;
#X connect 395 0 396 0;
#X connect 395 1 397 0;
#X connect 395 2 398 0;
#X connect 395 3 399 0;
#X connect 400 0 314 0;
#X connect 403 0 265 0;
#X connect 403 1 284 0;
#X connect 404 0 265 0;
#X connect 404 1 284 1;
#X connect 405 0 265 0;
#X connect 405 1 284 2;
#X connect 406 0 265 0;
#X connect 406 1 284 3;
#X connect 407 0 270 0;
#X connect 407 1 284 4;
#X connect 408 0 270 0;
#X connect 408 1 284 5;
#X connect 409 0 270 0;
#X connect 409 1 284 6;
#X connect 410 0 270 0;
#X connect 410 1 284 7;
#X connect 411 0 275 0;
#X connect 411 1 284 8;
#X connect 412 0 275 0;
#X connect 412 1 284 9;
#X connect 413 0 275 0;
#X connect 413 1 284 10;
#X connect 414 0 275 0;
#X connect 414 1 284 11;
#X connect 415 0 280 0;
#X connect 415 1 285 0;
#X connect 416 0 280 0;
#X connect 416 1 285 1;
#X connect 417 0 280 0;
#X connect 417 1 285 2;
#X connect 418 0 280 0;
#X connect 418 1 285 3;
#X connect 419 0 385 0;
#X connect 419 1 386 0;
#X connect 419 2 387 0;
#X connect 419 3 388 0;
#X connect 419 4 389 0;
#X connect 419 5 390 0;
#X connect 419 6 391 0;
#X connect 419 7 392 0;
#X connect 419 8 393 0;
#X connect 419 9 394 0;
#X connect 419 10 420 0;
#X connect 419 11 421 0;
