#N canvas 446 278 1306 997 12;
#X obj 909 156 bng 15 250 50 0 empty empty empty 17 7 0 10 -262144
-1 -1;
#X obj 1285 183 bng 15 250 50 0 empty empty empty 17 7 0 10 -262144
-1 -1;
#X obj 967 156 tgl 15 0 empty empty empty 17 7 0 10 -262144 -1 -1 0
1;
#X msg 967 211 1;
#X obj 967 267 +;
#X obj 1022 267 % 16;
#X obj 1250 155 delay 800;
#X obj 967 293 sel 1;
#X floatatom 1022 294 5 0 0 0 - - -;
#X obj 460 103 key;
#X floatatom 909 350 5 0 0 0 - - -;
#X floatatom 1023 321 5 0 0 0 - - -;
#X obj 967 181 metro 50;
#X obj 967 350 spigot;
#X obj 909 297 tgl 15 0 empty empty empty 17 7 0 10 -262144 -1 -1 0
1;
#X obj 3520 1049 r kick_play;
#X obj 3520 1073;
#X obj 1025 237 hsl 64 15 4 16 0 0 empty empty empty -2 -8 0 10 -262144
-1 -1 6300 1;
#X floatatom 967 383 5 0 0 0 - - -;
#X obj 967 508 bng 15 250 50 0 empty empty empty 17 7 0 10 -262144
-1 -1;
#X obj 460 132 s key_press;
#X obj 967 534 s kick_play;
#X obj 1051 534 s score_incr;
#X obj 808 350 r key_press;
#X obj 592 208 metro 200;
#X obj 592 183 tgl 15 0 empty empty empty 17 7 0 10 -262144 -1 -1 0
1;
#X obj 627 184 bng 15 250 50 0 empty empty empty 17 7 0 10 -262144
-1 -1;
#X msg 592 236 1;
#X obj 592 263 +;
#X obj 500 323 sel 1;
#X floatatom 662 264 5 0 0 0 - - -;
#X obj 1022 211 r press_window;
#X obj 676 156 r led_window;
#X obj 679 184 hsl 64 15 100 600 0 0 empty empty empty -2 -8 0 10 -262144
-1 -1 1260 1;
#X obj 629 264 % 5;
#X obj 544 323 sel 2;
#X obj 544 354 bng 15 250 50 0 empty empty empty 17 7 0 10 -262144
-1 -1;
#X obj 587 323 sel 3;
#X obj 630 323 sel 4;
#X obj 673 323 sel 5;
#X obj 587 354 bng 15 250 50 0 empty empty empty 17 7 0 10 -262144
-1 -1;
#X obj 630 354 bng 15 250 50 0 empty empty empty 17 7 0 10 -262144
-1 -1;
#X obj 673 354 bng 15 250 50 0 empty empty empty 17 7 0 10 -262144
-1 -1;
#X obj 544 384 tgl 15 0 empty empty empty 17 7 0 10 -262144 -1 -1 0
1;
#X obj 587 384 tgl 15 0 empty empty empty 17 7 0 10 -262144 -1 -1 0
1;
#X obj 630 384 tgl 15 0 empty empty empty 17 7 0 10 -262144 -1 -1 0
1;
#X obj 673 384 tgl 15 0 empty empty empty 17 7 0 10 -262144 -1 -1 0
1;
#X obj 500 353 bng 15 250 50 0 empty empty empty 17 7 0 10 -262144
-1 -1;
#X obj 500 384 tgl 15 0 empty empty empty 17 7 0 10 -262144 -1 -1 1
1;
#X obj 693 385 delay 200;
#X obj 693 414 s check_kick;
#X obj 909 126 r check_kick;
#X obj 544 409 s k_led1;
#X obj 587 434 s k_led2;
#X obj 630 458 s k_led3;
#X obj 673 483 s k_led4;
#X obj 1250 208 metro 200;
#X obj 1250 183 tgl 15 0 empty empty empty 17 7 0 10 -262144 -1 -1
0 1;
#X msg 1250 236 1;
#X obj 1250 263 +;
#X obj 1158 323 sel 1;
#X floatatom 1320 264 5 0 0 0 - - -;
#X obj 1337 184 hsl 64 15 100 600 0 0 empty empty empty -2 -8 0 10
-262144 -1 -1 1260 1;
#X obj 1287 264 % 5;
#X obj 1202 323 sel 2;
#X obj 1202 354 bng 15 250 50 0 empty empty empty 17 7 0 10 -262144
-1 -1;
#X obj 1245 323 sel 3;
#X obj 1288 323 sel 4;
#X obj 1331 323 sel 5;
#X obj 1245 354 bng 15 250 50 0 empty empty empty 17 7 0 10 -262144
-1 -1;
#X obj 1288 354 bng 15 250 50 0 empty empty empty 17 7 0 10 -262144
-1 -1;
#X obj 1331 354 bng 15 250 50 0 empty empty empty 17 7 0 10 -262144
-1 -1;
#X obj 1202 384 tgl 15 0 empty empty empty 17 7 0 10 -262144 -1 -1
0 1;
#X obj 1245 384 tgl 15 0 empty empty empty 17 7 0 10 -262144 -1 -1
0 1;
#X obj 1288 384 tgl 15 0 empty empty empty 17 7 0 10 -262144 -1 -1
0 1;
#X obj 1331 384 tgl 15 0 empty empty empty 17 7 0 10 -262144 -1 -1
0 1;
#X obj 1158 353 bng 15 250 50 0 empty empty empty 17 7 0 10 -262144
-1 -1;
#X obj 1158 384 tgl 15 0 empty empty empty 17 7 0 10 -262144 -1 -1
0 1;
#X obj 1351 385 delay 200;
#X obj 1202 409 s s_led1;
#X obj 1245 434 s s_led2;
#X obj 1288 458 s s_led3;
#X obj 1331 483 s s_led4;
#X obj 1351 414 s check_snare;
#X obj 1386 135 r led_window;
#X floatatom 418 133 5 0 0 0 - - -;
#X obj 460 159 keyname;
#X symbolatom 460 190 10 0 0 0 - - -;
#X floatatom 418 190 5 0 0 0 - - -;
#X obj 967 410 sel 119;
#X text 1046 13 pressing the wrong key \, during a check or otherwise
\, decreases the score. missing a note decreases the score. correct
presses increase the score.;
#X obj 894 453 spigot;
#X obj 894 434 bng 15 250 50 0 empty empty empty 17 7 0 10 -262144
-1 -1;
#X obj 925 435 tgl 15 0 empty empty empty 17 7 0 10 -262144 -1 -1 0
1;
#X obj 894 481 bng 15 250 50 0 empty empty empty 17 7 0 10 -262144
-1 -1;
#X msg 893 410 1;
#X obj 876 534 s score_decr;
#X obj 1572 156 bng 15 250 50 0 empty empty empty 17 7 0 10 -262144
-1 -1;
#X obj 1630 156 tgl 15 0 empty empty empty 17 7 0 10 -262144 -1 -1
0 1;
#X msg 1630 211 1;
#X obj 1630 267 +;
#X obj 1685 267 % 16;
#X obj 1630 293 sel 1;
#X floatatom 1685 294 5 0 0 0 - - -;
#X floatatom 1572 350 5 0 0 0 - - -;
#X floatatom 1686 321 5 0 0 0 - - -;
#X obj 1630 181 metro 50;
#X obj 1630 350 spigot;
#X obj 1572 297 tgl 15 0 empty empty empty 17 7 0 10 -262144 -1 -1
0 1;
#X obj 1688 237 hsl 64 15 4 16 0 0 empty empty empty -2 -8 0 10 -262144
-1 -1 6300 1;
#X floatatom 1630 383 5 0 0 0 - - -;
#X obj 1630 508 bng 15 250 50 0 empty empty empty 17 7 0 10 -262144
-1 -1;
#X obj 1721 534 s score_incr;
#X obj 1471 350 r key_press;
#X obj 1685 211 r press_window;
#X obj 1557 453 spigot;
#X obj 1557 434 bng 15 250 50 0 empty empty empty 17 7 0 10 -262144
-1 -1;
#X obj 1588 435 tgl 15 0 empty empty empty 17 7 0 10 -262144 -1 -1
0 1;
#X obj 1557 481 bng 15 250 50 0 empty empty empty 17 7 0 10 -262144
-1 -1;
#X msg 1556 410 1;
#X obj 1539 534 s score_decr;
#X obj 1572 126 r check_snare;
#X obj 1630 534 s snare_play;
#X obj 1630 410 sel 101;
#X obj 2083 150 r key_press;
#X obj 1899 274 r check_kick;
#X obj 1899 380 spigot;
#X obj 1899 301 tgl 15 0 empty empty empty 17 7 0 10 -262144 -1 -1
0 1;
#X obj 1936 301 delay 800;
#X obj 1996 247 r press_window;
#X obj 1996 274 * 50;
#X obj 1899 410 bng 15 250 50 0 empty empty empty 17 7 0 10 -262144
-1 -1;
#X obj 1899 326 expr ($f1 - 1) * -1;
#X obj 1899 355 tgl 15 0 empty empty empty 17 7 0 10 -262144 -1 -1
1 1;
#X obj 1976 355 loadbang;
#X obj 1899 433 s score_decr;
#X obj 2110 380 spigot;
#X obj 2110 301 tgl 15 0 empty empty empty 17 7 0 10 -262144 -1 -1
0 1;
#X obj 2147 301 delay 800;
#X obj 2207 247 r press_window;
#X obj 2207 274 * 50;
#X obj 2110 410 bng 15 250 50 0 empty empty empty 17 7 0 10 -262144
-1 -1;
#X obj 2110 326 expr ($f1 - 1) * -1;
#X obj 2110 355 tgl 15 0 empty empty empty 17 7 0 10 -262144 -1 -1
1 1;
#X obj 2187 355 loadbang;
#X obj 2110 433 s score_decr;
#X obj 2110 274 r check_snare;
#X obj 2233 179 s score_decr;
#X obj 625 654 bng 15 250 50 0 empty empty empty 17 7 0 10 -262144
-1 -1;
#X obj 592 679 metro 200;
#X obj 592 654 tgl 15 0 empty empty empty 17 7 0 10 -262144 -1 -1 0
1;
#X msg 592 707 1;
#X obj 592 734 +;
#X obj 500 794 sel 1;
#X floatatom 662 735 5 0 0 0 - - -;
#X obj 679 655 hsl 64 15 100 600 0 0 empty empty empty -2 -8 0 10 -262144
-1 -1 1260 1;
#X obj 629 735 % 5;
#X obj 544 794 sel 2;
#X obj 544 825 bng 15 250 50 0 empty empty empty 17 7 0 10 -262144
-1 -1;
#X obj 587 794 sel 3;
#X obj 630 794 sel 4;
#X obj 673 794 sel 5;
#X obj 587 825 bng 15 250 50 0 empty empty empty 17 7 0 10 -262144
-1 -1;
#X obj 630 825 bng 15 250 50 0 empty empty empty 17 7 0 10 -262144
-1 -1;
#X obj 673 825 bng 15 250 50 0 empty empty empty 17 7 0 10 -262144
-1 -1;
#X obj 544 855 tgl 15 0 empty empty empty 17 7 0 10 -262144 -1 -1 0
1;
#X obj 587 855 tgl 15 0 empty empty empty 17 7 0 10 -262144 -1 -1 0
1;
#X obj 630 855 tgl 15 0 empty empty empty 17 7 0 10 -262144 -1 -1 0
1;
#X obj 673 855 tgl 15 0 empty empty empty 17 7 0 10 -262144 -1 -1 0
1;
#X obj 500 824 bng 15 250 50 0 empty empty empty 17 7 0 10 -262144
-1 -1;
#X obj 500 855 tgl 15 0 empty empty empty 17 7 0 10 -262144 -1 -1 0
1;
#X obj 693 856 delay 200;
#X obj 914 606 bng 15 250 50 0 empty empty empty 17 7 0 10 -262144
-1 -1;
#X obj 972 606 tgl 15 0 empty empty empty 17 7 0 10 -262144 -1 -1 0
1;
#X msg 972 661 1;
#X obj 972 717 +;
#X obj 1027 717 % 16;
#X obj 972 743 sel 1;
#X floatatom 1027 744 5 0 0 0 - - -;
#X floatatom 914 800 5 0 0 0 - - -;
#X floatatom 1028 771 5 0 0 0 - - -;
#X obj 972 631 metro 50;
#X obj 972 800 spigot;
#X obj 914 747 tgl 15 0 empty empty empty 17 7 0 10 -262144 -1 -1 0
1;
#X obj 1030 687 hsl 64 15 4 16 0 0 empty empty empty -2 -8 0 10 -262144
-1 -1 6300 1;
#X floatatom 972 833 5 0 0 0 - - -;
#X obj 972 958 bng 15 250 50 0 empty empty empty 17 7 0 10 -262144
-1 -1;
#X obj 1063 984 s score_incr;
#X obj 813 800 r key_press;
#X obj 1027 661 r press_window;
#X obj 899 903 spigot;
#X obj 899 884 bng 15 250 50 0 empty empty empty 17 7 0 10 -262144
-1 -1;
#X obj 930 885 tgl 15 0 empty empty empty 17 7 0 10 -262144 -1 -1 0
1;
#X obj 899 931 bng 15 250 50 0 empty empty empty 17 7 0 10 -262144
-1 -1;
#X msg 898 860 1;
#X obj 881 984 s score_decr;
#X obj 914 576 r check_tom;
#X obj 592 621 delay 400;
#X obj 693 885 s check_tom;
#X obj 972 984 s tom_play;
#X obj 1284 640 bng 15 250 50 0 empty empty empty 17 7 0 10 -262144
-1 -1;
#X obj 1250 663 metro 200;
#X obj 1250 638 tgl 15 0 empty empty empty 17 7 0 10 -262144 -1 -1
0 1;
#X msg 1250 691 1;
#X obj 1250 718 +;
#X obj 1158 778 sel 1;
#X floatatom 1320 719 5 0 0 0 - - -;
#X obj 1337 639 hsl 64 15 100 600 0 0 empty empty empty -2 -8 0 10
-262144 -1 -1 1260 1;
#X obj 1287 719 % 5;
#X obj 1202 778 sel 2;
#X obj 1202 809 bng 15 250 50 0 empty empty empty 17 7 0 10 -262144
-1 -1;
#X obj 1245 778 sel 3;
#X obj 1288 778 sel 4;
#X obj 1331 778 sel 5;
#X obj 1245 809 bng 15 250 50 0 empty empty empty 17 7 0 10 -262144
-1 -1;
#X obj 1288 809 bng 15 250 50 0 empty empty empty 17 7 0 10 -262144
-1 -1;
#X obj 1331 809 bng 15 250 50 0 empty empty empty 17 7 0 10 -262144
-1 -1;
#X obj 1202 839 tgl 15 0 empty empty empty 17 7 0 10 -262144 -1 -1
0 1;
#X obj 1245 839 tgl 15 0 empty empty empty 17 7 0 10 -262144 -1 -1
0 1;
#X obj 1288 839 tgl 15 0 empty empty empty 17 7 0 10 -262144 -1 -1
0 1;
#X obj 1331 839 tgl 15 0 empty empty empty 17 7 0 10 -262144 -1 -1
0 1;
#X obj 1158 808 bng 15 250 50 0 empty empty empty 17 7 0 10 -262144
-1 -1;
#X obj 1158 839 tgl 15 0 empty empty empty 17 7 0 10 -262144 -1 -1
0 1;
#X obj 1351 840 delay 200;
#X obj 1386 578 r led_window;
#X obj 1572 611 bng 15 250 50 0 empty empty empty 17 7 0 10 -262144
-1 -1;
#X obj 1630 611 tgl 15 0 empty empty empty 17 7 0 10 -262144 -1 -1
0 1;
#X msg 1630 666 1;
#X obj 1630 722 +;
#X obj 1685 722 % 16;
#X obj 1630 748 sel 1;
#X floatatom 1685 749 5 0 0 0 - - -;
#X floatatom 1572 805 5 0 0 0 - - -;
#X floatatom 1686 782 5 0 0 0 - - -;
#X obj 1630 636 metro 50;
#X obj 1630 805 spigot;
#X obj 1572 752 tgl 15 0 empty empty empty 17 7 0 10 -262144 -1 -1
0 1;
#X obj 1688 692 hsl 64 15 4 16 0 0 empty empty empty -2 -8 0 10 -262144
-1 -1 6300 1;
#X floatatom 1630 838 5 0 0 0 - - -;
#X obj 1630 963 bng 15 250 50 0 empty empty empty 17 7 0 10 -262144
-1 -1;
#X obj 1721 989 s score_incr;
#X obj 1471 805 r key_press;
#X obj 1685 666 r press_window;
#X obj 1557 908 spigot;
#X obj 1557 889 bng 15 250 50 0 empty empty empty 17 7 0 10 -262144
-1 -1;
#X obj 1588 890 tgl 15 0 empty empty empty 17 7 0 10 -262144 -1 -1
0 1;
#X obj 1557 936 bng 15 250 50 0 empty empty empty 17 7 0 10 -262144
-1 -1;
#X msg 1556 865 1;
#X obj 1539 989 s score_decr;
#X obj 1250 609 delay 1200;
#X obj 1351 869 s check_hat;
#X obj 1572 581 r check_hat;
#X obj 1630 989 s hat_play;
#X obj 2330 380 spigot;
#X obj 2330 301 tgl 15 0 empty empty empty 17 7 0 10 -262144 -1 -1
0 1;
#X obj 2367 301 delay 800;
#X obj 2427 247 r press_window;
#X obj 2427 274 * 50;
#X obj 2330 410 bng 15 250 50 0 empty empty empty 17 7 0 10 -262144
-1 -1;
#X obj 2330 326 expr ($f1 - 1) * -1;
#X obj 2330 355 tgl 15 0 empty empty empty 17 7 0 10 -262144 -1 -1
1 1;
#X obj 2407 355 loadbang;
#X obj 2330 433 s score_decr;
#X obj 2541 380 spigot;
#X obj 2541 301 tgl 15 0 empty empty empty 17 7 0 10 -262144 -1 -1
0 1;
#X obj 2578 301 delay 800;
#X obj 2638 247 r press_window;
#X obj 2638 274 * 50;
#X obj 2541 410 bng 15 250 50 0 empty empty empty 17 7 0 10 -262144
-1 -1;
#X obj 2541 326 expr ($f1 - 1) * -1;
#X obj 2541 355 tgl 15 0 empty empty empty 17 7 0 10 -262144 -1 -1
1 1;
#X obj 2618 355 loadbang;
#X obj 2541 433 s score_decr;
#X obj 972 860 sel 115;
#X obj 1630 865 sel 100;
#X obj 2330 274 r check_tom;
#X obj 2541 274 r check_hat;
#X obj 2083 179 sel 119 101 115 100;
#X obj 544 880 s t_led1;
#X obj 587 905 s t_led2;
#X obj 630 929 s t_led3;
#X obj 673 954 s t_led4;
#X obj 1202 864 s h_led1;
#X obj 1245 889 s h_led2;
#X obj 1288 913 s h_led3;
#X obj 1331 938 s h_led4;
#X obj 716 125 s led_window;
#X obj 1026 135 s press_window;
#X obj 2003 561 r k_led1;
#X obj 2034 587 r k_led2;
#X obj 2071 613 r k_led3;
#X obj 2093 641 r k_led4;
#X obj 1951 646 bng 15 250 50 0 empty empty empty 17 7 0 10 -262144
-1 -1;
#X obj 2125 558 r s_led1;
#X obj 2156 584 r s_led2;
#X obj 2193 610 r s_led3;
#X obj 2215 638 r s_led4;
#X obj 2227 685 bng 15 250 50 0 empty empty empty 17 7 0 10 -262144
-1 -1;
#X obj 2260 553 r t_led1;
#X obj 2293 579 r t_led2;
#X obj 2328 605 r t_led3;
#X obj 2352 633 r t_led4;
#X obj 2348 689 bng 15 250 50 0 empty empty empty 17 7 0 10 -262144
-1 -1;
#X obj 2467 562 r h_led1;
#X obj 2513 587 r h_led2;
#X obj 2549 613 r h_led3;
#X obj 2572 641 r h_led4;
#X obj 2455 649 bng 15 250 50 0 empty empty empty 17 7 0 10 -262144
-1 -1;
#X obj 798 92 hsl 64 15 100 600 0 0 empty empty empty -2 -8 0 10 -262144
-1 -1 1260 1;
#X obj 2003 804 s led_list_dig;
#X obj 2481 801 s led_list_ana;
#X obj 2003 730 pack float float float float float float float float
float float float float;
#X obj 2481 739 pack float float float float;
#X text 591 16 kick responds to key w \, snare responds to key e \,
tom responds to key s \, and hat responds to key d;
#X obj 1099 95 hsl 64 15 4 16 0 0 empty empty empty -2 -8 0 10 -262144
-1 -1 6300 1;
#X obj 1113 63 loadbang;
#X obj 806 55 loadbang;
#X msg 756 55 200;
#X msg 1076 63 16;
#X obj 643 235 loadbang;
#X obj 1306 233 loadbang;
#X obj 646 704 loadbang;
#X obj 1315 692 loadbang;
#X obj 93 79 r sixty_fourth_note_duration;
#X floatatom 143 160 5 0 0 0 - - -;
#X obj 143 228 s led_window;
#X obj 196 161 hsl 64 15 4 16 0 0 empty empty empty -2 -8 0 10 -262144
-1 -1 6300 1;
#X obj 193 107 loadbang;
#X floatatom 211 197 5 0 0 0 - - -;
#X obj 42 176 bng 15 250 50 0 empty empty empty 17 7 0 10 -262144 -1
-1;
#X obj 42 206 tgl 15 0 empty empty empty 17 7 0 10 -262144 -1 -1 1
1;
#X obj 42 147 inlet;
#X obj 748 568 r led_window;
#X msg 41 82 50;
#X obj 708 590 * 4;
#X obj 1342 131 * 8;
#X obj 1335 579 * 12;
#X msg 193 131 16;
#N canvas 1173 275 1140 732 beatmaker 1;
#X obj 47 165 f;
#X obj 81 165 + 1;
#X obj 47 189 mod 16;
#X obj 47 213 hradio 15 1 0 16 empty empty empty 0 -8 0 10 -262144
-1 -1 6;
#X floatatom 100 189 5 0 0 0 - - -;
#X obj 59 119 tgl 15 0 empty empty empty 17 7 0 10 -262144 -1 -1 1
1;
#X obj 132 428 sel 4 12;
#X obj 47 141 metro 200;
#X obj 318 428 sel 9;
#X obj 236 427 sel 2 6 8;
#X obj 43 428 sel 0 10 14;
#X obj 400 428 sel 0 6 10;
#X obj 489 428 sel 4 9 12;
#X obj 675 428 sel 14;
#X obj 593 427 sel 2 8;
#X obj 122 312 spigot;
#X obj 120 262 sel 0;
#X obj 125 285 tgl 15 0 empty empty empty 17 7 0 10 -262144 -1 -1 1
1;
#X obj 339 220 hradio 15 1 0 8 empty empty empty 0 -8 0 10 -262144
-1 -1 0;
#X msg 166 270 set 0;
#X obj 447 315 spigot;
#X obj 450 288 tgl 15 0 empty empty empty 17 7 0 10 -262144 -1 -1 0
1;
#X msg 491 273 set 0;
#X obj 445 267 sel 1;
#X obj 43 464 s k_trigger;
#X obj 132 464 s s_trigger;
#X obj 236 464 s h_trigger;
#X obj 318 464 s t_trigger;
#X obj 400 464 s k_trigger;
#X obj 489 464 s s_trigger;
#X obj 593 464 s h_trigger;
#X obj 675 464 s t_trigger;
#X obj 47 84 inlet;
#X obj 126 80 inlet;
#X floatatom 142 123 5 0 0 0 - - -;
#X connect 0 0 1 0;
#X connect 0 0 2 0;
#X connect 1 0 0 1;
#X connect 2 0 3 0;
#X connect 2 0 4 0;
#X connect 3 0 15 0;
#X connect 3 0 20 0;
#X connect 5 0 7 0;
#X connect 6 0 25 0;
#X connect 6 1 25 0;
#X connect 7 0 0 0;
#X connect 8 0 27 0;
#X connect 9 0 26 0;
#X connect 9 1 26 0;
#X connect 9 2 26 0;
#X connect 10 0 24 0;
#X connect 10 1 24 0;
#X connect 10 2 24 0;
#X connect 11 0 28 0;
#X connect 11 1 28 0;
#X connect 11 2 28 0;
#X connect 12 0 29 0;
#X connect 12 1 29 0;
#X connect 13 0 31 0;
#X connect 14 0 30 0;
#X connect 14 1 30 0;
#X connect 15 0 10 0;
#X connect 15 0 6 0;
#X connect 15 0 9 0;
#X connect 15 0 8 0;
#X connect 16 0 17 0;
#X connect 16 1 19 0;
#X connect 17 0 15 1;
#X connect 18 0 16 0;
#X connect 18 0 23 0;
#X connect 19 0 17 0;
#X connect 20 0 11 0;
#X connect 20 0 12 0;
#X connect 20 0 14 0;
#X connect 20 0 13 0;
#X connect 21 0 20 1;
#X connect 22 0 21 0;
#X connect 23 0 21 0;
#X connect 23 1 22 0;
#X connect 32 0 5 0;
#X connect 33 0 7 1;
#X connect 33 0 34 0;
#X restore 36 255 pd beatmaker;
#X obj 592 155 r k_trigger;
#X obj 592 594 r t_trigger;
#X obj 1250 129 r s_trigger;
#X obj 1250 580 r h_trigger;
#X obj 93 159 * 4;
#X obj 97 207 * 4;
#X connect 0 0 2 0;
#X connect 0 0 14 0;
#X connect 0 0 95 0;
#X connect 2 0 12 0;
#X connect 3 0 4 0;
#X connect 4 0 5 0;
#X connect 4 0 8 0;
#X connect 4 0 7 0;
#X connect 5 0 4 1;
#X connect 6 0 57 0;
#X connect 7 0 2 0;
#X connect 7 0 14 0;
#X connect 7 0 92 0;
#X connect 7 1 11 0;
#X connect 9 0 20 0;
#X connect 9 0 85 0;
#X connect 10 0 13 0;
#X connect 12 0 3 0;
#X connect 13 0 18 0;
#X connect 14 0 13 1;
#X connect 15 0 16 0;
#X connect 17 0 5 1;
#X connect 18 0 89 0;
#X connect 19 0 21 0;
#X connect 19 0 22 0;
#X connect 23 0 10 0;
#X connect 24 0 27 0;
#X connect 25 0 24 0;
#X connect 27 0 28 0;
#X connect 28 0 29 0;
#X connect 28 0 30 0;
#X connect 28 0 34 0;
#X connect 28 0 35 0;
#X connect 28 0 37 0;
#X connect 28 0 38 0;
#X connect 28 0 39 0;
#X connect 29 0 25 0;
#X connect 29 0 47 0;
#X connect 31 0 17 0;
#X connect 32 0 33 0;
#X connect 33 0 24 1;
#X connect 33 0 49 1;
#X connect 34 0 28 1;
#X connect 35 0 36 0;
#X connect 36 0 43 0;
#X connect 36 0 48 0;
#X connect 37 0 40 0;
#X connect 38 0 41 0;
#X connect 39 0 42 0;
#X connect 40 0 44 0;
#X connect 40 0 43 0;
#X connect 41 0 45 0;
#X connect 41 0 44 0;
#X connect 42 0 46 0;
#X connect 42 0 49 0;
#X connect 42 0 45 0;
#X connect 43 0 52 0;
#X connect 44 0 53 0;
#X connect 45 0 54 0;
#X connect 46 0 55 0;
#X connect 47 0 48 0;
#X connect 49 0 50 0;
#X connect 49 0 46 0;
#X connect 51 0 0 0;
#X connect 56 0 58 0;
#X connect 57 0 56 0;
#X connect 58 0 59 0;
#X connect 59 0 60 0;
#X connect 59 0 61 0;
#X connect 59 0 63 0;
#X connect 59 0 64 0;
#X connect 59 0 66 0;
#X connect 59 0 67 0;
#X connect 59 0 68 0;
#X connect 60 0 57 0;
#X connect 60 0 76 0;
#X connect 62 0 56 1;
#X connect 62 0 78 1;
#X connect 63 0 59 1;
#X connect 64 0 65 0;
#X connect 65 0 72 0;
#X connect 65 0 77 0;
#X connect 66 0 69 0;
#X connect 67 0 70 0;
#X connect 68 0 71 0;
#X connect 69 0 73 0;
#X connect 69 0 72 0;
#X connect 70 0 74 0;
#X connect 70 0 73 0;
#X connect 71 0 75 0;
#X connect 71 0 74 0;
#X connect 71 0 78 0;
#X connect 72 0 79 0;
#X connect 73 0 80 0;
#X connect 74 0 81 0;
#X connect 75 0 82 0;
#X connect 76 0 77 0;
#X connect 78 0 83 0;
#X connect 78 0 75 0;
#X connect 84 0 62 0;
#X connect 84 0 335 0;
#X connect 86 0 88 0;
#X connect 86 1 87 0;
#X connect 89 0 19 0;
#X connect 89 0 93 0;
#X connect 91 0 94 0;
#X connect 92 0 91 0;
#X connect 93 0 91 1;
#X connect 94 0 93 0;
#X connect 94 0 96 0;
#X connect 95 0 93 0;
#X connect 97 0 98 0;
#X connect 97 0 108 0;
#X connect 97 0 119 0;
#X connect 98 0 106 0;
#X connect 99 0 100 0;
#X connect 100 0 101 0;
#X connect 100 0 103 0;
#X connect 100 0 102 0;
#X connect 101 0 100 1;
#X connect 102 0 98 0;
#X connect 102 0 108 0;
#X connect 102 0 116 0;
#X connect 102 1 105 0;
#X connect 104 0 107 0;
#X connect 106 0 99 0;
#X connect 107 0 110 0;
#X connect 108 0 107 1;
#X connect 109 0 101 1;
#X connect 110 0 123 0;
#X connect 111 0 112 0;
#X connect 111 0 122 0;
#X connect 113 0 104 0;
#X connect 114 0 109 0;
#X connect 115 0 118 0;
#X connect 116 0 115 0;
#X connect 117 0 115 1;
#X connect 118 0 117 0;
#X connect 118 0 120 0;
#X connect 119 0 117 0;
#X connect 121 0 97 0;
#X connect 123 0 111 0;
#X connect 123 0 117 0;
#X connect 124 0 277 0;
#X connect 125 0 127 0;
#X connect 125 0 128 0;
#X connect 126 0 131 0;
#X connect 127 0 132 0;
#X connect 128 0 127 0;
#X connect 129 0 130 0;
#X connect 130 0 128 1;
#X connect 131 0 135 0;
#X connect 132 0 133 0;
#X connect 133 0 126 1;
#X connect 134 0 133 0;
#X connect 136 0 141 0;
#X connect 137 0 142 0;
#X connect 138 0 137 0;
#X connect 139 0 140 0;
#X connect 140 0 138 1;
#X connect 141 0 145 0;
#X connect 142 0 143 0;
#X connect 143 0 136 1;
#X connect 144 0 143 0;
#X connect 146 0 137 0;
#X connect 146 0 138 0;
#X connect 149 0 151 0;
#X connect 150 0 149 0;
#X connect 151 0 152 0;
#X connect 152 0 153 0;
#X connect 152 0 154 0;
#X connect 152 0 156 0;
#X connect 152 0 157 0;
#X connect 152 0 159 0;
#X connect 152 0 160 0;
#X connect 152 0 161 0;
#X connect 153 0 150 0;
#X connect 153 0 169 0;
#X connect 155 0 149 1;
#X connect 155 0 171 1;
#X connect 156 0 152 1;
#X connect 157 0 158 0;
#X connect 158 0 165 0;
#X connect 158 0 170 0;
#X connect 159 0 162 0;
#X connect 160 0 163 0;
#X connect 161 0 164 0;
#X connect 162 0 166 0;
#X connect 162 0 165 0;
#X connect 163 0 167 0;
#X connect 163 0 166 0;
#X connect 164 0 168 0;
#X connect 164 0 167 0;
#X connect 164 0 171 0;
#X connect 165 0 278 0;
#X connect 166 0 279 0;
#X connect 167 0 280 0;
#X connect 168 0 281 0;
#X connect 169 0 170 0;
#X connect 171 0 198 0;
#X connect 171 0 168 0;
#X connect 172 0 173 0;
#X connect 172 0 183 0;
#X connect 172 0 194 0;
#X connect 173 0 181 0;
#X connect 174 0 175 0;
#X connect 175 0 176 0;
#X connect 175 0 178 0;
#X connect 175 0 177 0;
#X connect 176 0 175 1;
#X connect 177 0 173 0;
#X connect 177 0 183 0;
#X connect 177 0 191 0;
#X connect 177 1 180 0;
#X connect 179 0 182 0;
#X connect 181 0 174 0;
#X connect 182 0 185 0;
#X connect 183 0 182 1;
#X connect 184 0 176 1;
#X connect 185 0 273 0;
#X connect 186 0 187 0;
#X connect 186 0 199 0;
#X connect 188 0 179 0;
#X connect 189 0 184 0;
#X connect 190 0 193 0;
#X connect 191 0 190 0;
#X connect 192 0 190 1;
#X connect 193 0 192 0;
#X connect 193 0 195 0;
#X connect 194 0 192 0;
#X connect 196 0 172 0;
#X connect 197 0 150 0;
#X connect 197 0 148 0;
#X connect 201 0 203 0;
#X connect 202 0 201 0;
#X connect 203 0 204 0;
#X connect 204 0 205 0;
#X connect 204 0 206 0;
#X connect 204 0 208 0;
#X connect 204 0 209 0;
#X connect 204 0 211 0;
#X connect 204 0 212 0;
#X connect 204 0 213 0;
#X connect 205 0 202 0;
#X connect 205 0 221 0;
#X connect 207 0 201 1;
#X connect 207 0 223 1;
#X connect 208 0 204 1;
#X connect 209 0 210 0;
#X connect 210 0 217 0;
#X connect 210 0 222 0;
#X connect 211 0 214 0;
#X connect 212 0 215 0;
#X connect 213 0 216 0;
#X connect 214 0 218 0;
#X connect 214 0 217 0;
#X connect 215 0 219 0;
#X connect 215 0 218 0;
#X connect 216 0 220 0;
#X connect 216 0 219 0;
#X connect 216 0 223 0;
#X connect 217 0 282 0;
#X connect 218 0 283 0;
#X connect 219 0 284 0;
#X connect 220 0 285 0;
#X connect 221 0 222 0;
#X connect 223 0 250 0;
#X connect 223 0 220 0;
#X connect 224 0 207 0;
#X connect 224 0 336 0;
#X connect 225 0 226 0;
#X connect 225 0 236 0;
#X connect 225 0 247 0;
#X connect 226 0 234 0;
#X connect 227 0 228 0;
#X connect 228 0 229 0;
#X connect 228 0 231 0;
#X connect 228 0 230 0;
#X connect 229 0 228 1;
#X connect 230 0 226 0;
#X connect 230 0 236 0;
#X connect 230 0 244 0;
#X connect 230 1 233 0;
#X connect 232 0 235 0;
#X connect 234 0 227 0;
#X connect 235 0 238 0;
#X connect 236 0 235 1;
#X connect 237 0 229 1;
#X connect 238 0 274 0;
#X connect 239 0 240 0;
#X connect 239 0 252 0;
#X connect 241 0 232 0;
#X connect 242 0 237 0;
#X connect 243 0 246 0;
#X connect 244 0 243 0;
#X connect 245 0 243 1;
#X connect 246 0 245 0;
#X connect 246 0 248 0;
#X connect 247 0 245 0;
#X connect 249 0 202 0;
#X connect 251 0 225 0;
#X connect 253 0 258 0;
#X connect 254 0 259 0;
#X connect 255 0 254 0;
#X connect 256 0 257 0;
#X connect 257 0 255 1;
#X connect 258 0 262 0;
#X connect 259 0 260 0;
#X connect 260 0 253 1;
#X connect 261 0 260 0;
#X connect 263 0 268 0;
#X connect 264 0 269 0;
#X connect 265 0 264 0;
#X connect 266 0 267 0;
#X connect 267 0 265 1;
#X connect 268 0 272 0;
#X connect 269 0 270 0;
#X connect 270 0 263 1;
#X connect 271 0 270 0;
#X connect 273 0 186 0;
#X connect 273 0 192 0;
#X connect 274 0 239 0;
#X connect 274 0 245 0;
#X connect 275 0 254 0;
#X connect 275 0 255 0;
#X connect 276 0 264 0;
#X connect 276 0 265 0;
#X connect 277 0 126 0;
#X connect 277 1 136 0;
#X connect 277 2 253 0;
#X connect 277 3 263 0;
#X connect 277 4 147 0;
#X connect 288 0 292 0;
#X connect 288 0 311 0;
#X connect 289 0 292 0;
#X connect 289 0 311 1;
#X connect 290 0 292 0;
#X connect 290 0 311 2;
#X connect 291 0 292 0;
#X connect 291 0 311 3;
#X connect 292 0 311 0;
#X connect 293 0 297 0;
#X connect 293 0 311 4;
#X connect 294 0 297 0;
#X connect 294 0 311 5;
#X connect 295 0 297 0;
#X connect 295 0 311 6;
#X connect 296 0 297 0;
#X connect 296 0 311 7;
#X connect 297 0 311 0;
#X connect 298 0 302 0;
#X connect 298 0 311 8;
#X connect 299 0 302 0;
#X connect 299 0 311 9;
#X connect 300 0 302 0;
#X connect 300 0 311 10;
#X connect 301 0 302 0;
#X connect 301 0 311 11;
#X connect 302 0 311 0;
#X connect 303 0 307 0;
#X connect 303 0 312 0;
#X connect 304 0 307 0;
#X connect 304 0 312 1;
#X connect 305 0 307 0;
#X connect 305 0 312 2;
#X connect 306 0 312 3;
#X connect 306 0 307 0;
#X connect 307 0 312 0;
#X connect 308 0 286 0;
#X connect 311 0 309 0;
#X connect 312 0 310 0;
#X connect 314 0 287 0;
#X connect 315 0 318 0;
#X connect 316 0 317 0;
#X connect 317 0 308 0;
#X connect 318 0 314 0;
#X connect 319 0 27 0;
#X connect 320 0 58 0;
#X connect 321 0 151 0;
#X connect 322 0 203 0;
#X connect 323 0 343 0;
#X connect 327 0 337 0;
#X connect 328 0 325 0;
#X connect 329 0 330 0;
#X connect 330 0 338 0;
#X connect 331 0 329 0;
#X connect 332 0 155 0;
#X connect 332 0 334 0;
#X connect 333 0 343 0;
#X connect 334 0 197 1;
#X connect 335 0 6 1;
#X connect 336 0 249 1;
#X connect 337 0 326 0;
#X connect 339 0 25 0;
#X connect 339 0 26 0;
#X connect 340 0 197 0;
#X connect 341 0 6 0;
#X connect 342 0 249 0;
#X connect 343 0 324 0;
#X connect 343 0 325 0;
#X connect 343 0 344 0;
#X connect 344 0 338 1;
