#N canvas 526 242 808 728 12;
#X obj 379 392 spigot;
#X obj 379 350 tgl 15 0 empty empty empty 17 7 0 10 -262144 -1 -1 0
1;
#X obj 409 349 bng 15 250 50 0 empty empty empty 17 7 0 10 -262144
-1 -1;
#X obj 379 425 tgl 15 0 empty empty empty 17 7 0 10 -262144 -1 -1 1
1;
#X obj 379 320 inlet;
#X obj 379 510 spigot;
#X obj 379 542 bng 15 250 50 0 empty empty empty 17 7 0 10 -262144
-1 -1;
#X obj 379 570 outlet;
#X obj 379 451 expr ($f1 - 1) * -1;
#X obj 379 475 tgl 15 0 empty empty empty 17 7 0 10 -262144 -1 -1 -0
1;
#X obj 342 351 bng 15 250 50 0 empty empty empty 17 7 0 10 -262144
-1 -1;
#X obj 303 252 bng 15 250 50 0 empty empty empty 17 7 0 10 -262144
-1 -1;
#X obj 317 406 t b b;
#X obj 416 476 loadbang;
#X obj 312 479 bng 15 250 50 0 empty empty empty 17 7 0 10 -262144
-1 -1;
#X obj 308 448 inlet;
#X obj 424 423 s close2;
#X obj 230 437 s close1;
#X obj 430 320 r close1;
#X obj 499 321 r close2;
#X text 318 189 this is a gate for bangs. if it has already passed
a bang \, it will pass no more until a reset is banged.;
#X text 258 489 reset;
#X text 255 348 close gate;
#X text 249 515 open gate;
#X text 262 331 pass bang;
#X connect 0 0 3 0;
#X connect 0 0 16 0;
#X connect 1 0 0 1;
#X connect 1 0 0 0;
#X connect 2 0 1 0;
#X connect 3 0 8 0;
#X connect 4 0 10 0;
#X connect 5 0 6 0;
#X connect 6 0 7 0;
#X connect 8 0 9 0;
#X connect 9 0 5 1;
#X connect 10 0 12 0;
#X connect 11 0 10 0;
#X connect 11 0 2 0;
#X connect 12 0 17 0;
#X connect 12 1 5 0;
#X connect 13 0 9 0;
#X connect 14 0 9 0;
#X connect 14 0 3 0;
#X connect 15 0 14 0;
#X connect 18 0 2 0;
#X connect 19 0 2 0;
